<svg xmlns="http://www.w3.org/2000/svg" width="18.251" height="18.252" viewBox="0 0 18.251 18.252">
  <g id="Group_4235" data-name="Group 4235" transform="translate(-972.501 -1265.763)">
    <g id="Group_7142" data-name="Group 7142" transform="translate(-4)">
      <g id="Group_7143" data-name="Group 7143">
        <circle id="Ellipse_250" data-name="Ellipse 250" cx="2.281" cy="2.281" r="2.281" transform="translate(983.344 1272.607)" fill="#eb0b0b" stroke="#eb0b0b" stroke-width="1"/>
      </g>
      <g id="Group_7141" data-name="Group 7141">
        <path id="Path_10637" data-name="Path 10637" d="M3421.029,1565.948a8.626,8.626,0,1,1,8.626-8.626A8.636,8.636,0,0,1,3421.029,1565.948Zm0-16.933a8.307,8.307,0,1,0,8.307,8.307A8.316,8.316,0,0,0,3421.029,1549.015Z" transform="translate(-2435.402 -282.433)" fill="#fff" stroke="#fff" stroke-width="1"/>
        <g id="Group_7140" data-name="Group 7140">
          <g id="Group_7139" data-name="Group 7139">
            <path id="Path_10640" data-name="Path 10640" d="M3433.651,1575.568a5.625,5.625,0,1,1,5.625-5.625A5.631,5.631,0,0,1,3433.651,1575.568Zm0-10.957a5.333,5.333,0,1,0,5.333,5.333A5.339,5.339,0,0,0,3433.651,1564.611Z" transform="translate(-2448.025 -295.055)" fill="#fff" stroke="#fff" stroke-width="1"/>
          </g>
        </g>
      </g>
    </g>
  </g>
</svg>
