<svg xmlns="http://www.w3.org/2000/svg" xmlns:xlink="http://www.w3.org/1999/xlink" width="160" height="80" viewBox="0 0 160 80"><defs><clipPath id="clip-Artboard_2"><rect width="160" height="80"></rect></clipPath></defs><g id="Artboard_2" data-name="Artboard &#x2013; 2" clip-path="url(#clip-Artboard_2)"><g id="Group_5111" data-name="Group 5111" transform="translate(33 2)"><path id="Path_14090" data-name="Path 14090" d="M2888.759,770.428h6.024v-2.2H2886.3v2.2Zm6.1,9.044v-2.2h-6.1v-2.361h5.3v-2.2h-7.76v6.763Zm-11.976-11.245h-2.667l-2.94,7.92-2.94-7.92h-2.731l4.547,11.326h2.184Zm-14.8,11.245V768.227h-2.474v11.245Zm-6.16-8.964v-2.282h-9.319v2.282h3.423v8.964h2.474v-8.964Zm-10.482,8.964-4.819-11.325h-2.282l-4.82,11.325h2.523c1.647-4.041,1.7-4.194,3.406-8.354,1.735,4.238,1.708,4.188,3.405,8.354Zm-20.941-9.044h6.025v-2.2h-8.482v2.2Zm6.1,9.044v-2.2h-6.1v-2.361h5.3v-2.2h-7.759v6.763Zm-14.979-7.374c0,.948-.691,1.59-1.9,1.59h-2.506v-3.229h2.458c1.205,0,1.944.546,1.944,1.606Zm2.844,7.374-2.747-4.016a3.494,3.494,0,0,0,2.41-3.486v-.032c0-2.313-1.59-3.711-4.242-3.711h-5.141v11.245h2.475v-3.6h1.944l2.409,3.6Zm-13.374-1.815-1.574-1.59a4.06,4.06,0,0,1-2.956,1.317,3.339,3.339,0,0,1-3.261-3.534v-.033a3.332,3.332,0,0,1,3.261-3.5,4.154,4.154,0,0,1,2.876,1.27l1.574-1.815a5.8,5.8,0,0,0-4.434-1.735,5.716,5.716,0,0,0-5.864,5.816v.031a5.676,5.676,0,0,0,5.768,5.784A5.749,5.749,0,0,0,2811.1,777.658Z" transform="translate(-2800.719 -710.99)" fill="#535353"></path><path id="Path_14091" data-name="Path 14091" d="M2954.281,866.942v-4.035h-.877v2.483l-1.89-2.483h-.818v4.035h.876v-2.565l1.954,2.565Zm-8.091-1.689h-1.072l.536-1.308Zm1.614,1.689-1.729-4.063h-.818l-1.729,4.063h.9l.369-.905h1.706l.369.905Zm-7.052-.57v-1.753H2939v.767h.894v.576a1.418,1.418,0,0,1-.836.242,1.209,1.209,0,0,1-1.222-1.28v-.011a1.212,1.212,0,0,1,1.159-1.256,1.484,1.484,0,0,1,1.054.409l.56-.674a2.217,2.217,0,0,0-1.585-.553,2.071,2.071,0,0,0-2.115,2.086v.011a2.019,2.019,0,0,0,2.121,2.075A2.62,2.62,0,0,0,2940.752,866.371Zm-7.652-1.436a1.207,1.207,0,0,1-1.21,1.257,1.226,1.226,0,0,1-1.222-1.268v-.011a1.207,1.207,0,0,1,1.21-1.256,1.226,1.226,0,0,1,1.222,1.268Zm.928-.011v-.011a2.145,2.145,0,0,0-4.288.011v.011a2.145,2.145,0,0,0,4.288-.011Zm-6.817,2.018v-.808H2925.2v-3.227h-.887v4.035Zm-5.94-1.194v-.011c0-.7-.461-1-1.279-1.211-.7-.179-.87-.265-.87-.531v-.011c0-.2.179-.352.519-.352a1.891,1.891,0,0,1,1.049.4l.461-.669a2.335,2.335,0,0,0-1.5-.513,1.261,1.261,0,0,0-1.411,1.216v.012c0,.8.524,1.026,1.336,1.233.675.173.813.289.813.513v.012c0,.236-.219.38-.582.38a1.853,1.853,0,0,1-1.205-.49l-.524.628a2.568,2.568,0,0,0,1.712.646C2920.66,867,2921.271,866.549,2921.271,865.748Zm-10.343-1.452c0,.34-.248.571-.68.571h-.9v-1.158h.882c.432,0,.7.2.7.576Zm1.02,2.646-.986-1.441a1.253,1.253,0,0,0,.864-1.251v-.011c0-.83-.57-1.331-1.521-1.331h-1.844v4.035h.887v-1.291h.7l.865,1.291Zm-6.66-1.758v-2.277h-.888v2.311c0,.64-.328.969-.87.969s-.87-.34-.87-1v-2.282h-.887v2.305a1.6,1.6,0,0,0,1.747,1.792A1.624,1.624,0,0,0,2905.287,865.184Zm-7.439-.248a1.207,1.207,0,0,1-1.21,1.257,1.226,1.226,0,0,1-1.222-1.268v-.011a1.207,1.207,0,0,1,1.21-1.256,1.226,1.226,0,0,1,1.222,1.268Zm.928-.011v-.011a2.145,2.145,0,0,0-4.288.011v.011a2.145,2.145,0,0,0,4.288-.011Zm-6.586-2.017h-1.009l-.979,1.62-.963-1.62H2888.2l1.551,2.443v1.591h.888v-1.609Z" transform="translate(-2874.169 -790.587)" fill="#535353"></path><path id="Path_14099" data-name="Path 14099" d="M2964.523,430.415h17.486l1.8,3.122q-4.371,7.571-8.743,15.143h-14.149l-3.471,6.012h21.091q6.107-10.578,12.214-21.155l-5.273-9.134h-31.368l3.47-6.01,24.427,0-3.47-6.011h-24.427L2941.9,433.536l3.471,6.011,5.273-9.132h6.941l-8.743,15.144,3.47,6.011,12.214-21.155m0,12.021h6.941l3.47-6.012H2968Z" transform="translate(-2919.252 -412.381)" fill="#535353" fill-rule="evenodd"></path></g></g></svg>