<svg xmlns="http://www.w3.org/2000/svg" xmlns:xlink="http://www.w3.org/1999/xlink" width="160" height="80" viewBox="0 0 160 80"><defs><clipPath id="clip-Artboard_4"><rect width="160" height="80"></rect></clipPath></defs><g id="Artboard_4" data-name="Artboard &#x2013; 4" clip-path="url(#clip-Artboard_4)"><g id="Group_5109" data-name="Group 5109" transform="translate(32 1)"><path id="Path_14094" data-name="Path 14094" d="M4512.97,770.456h6.092V768.23h-8.578v2.226Zm6.174,9.148v-2.226h-6.174v-2.388h5.361v-2.226h-7.847v6.84Zm-12.113-11.374h-2.7l-2.974,8.01-2.973-8.01h-2.762l4.6,11.455h2.209ZM4492.059,779.6V768.23h-2.5V779.6Zm-6.229-9.066V768.23h-9.425v2.308h3.462V779.6h2.5v-9.066Zm-10.6,9.066-4.873-11.454h-2.309l-4.875,11.454h2.552c1.666-4.087,1.721-4.242,3.445-8.449,1.755,4.286,1.727,4.236,3.444,8.449Zm-21.178-9.148h6.093V768.23h-8.58v2.226Zm6.174,9.148v-2.226h-6.174v-2.388h5.362v-2.226h-7.848v6.84Zm-15.151-7.458c0,.959-.7,1.609-1.917,1.609h-2.535v-3.266h2.486c1.218,0,1.966.552,1.966,1.625Zm2.876,7.458-2.778-4.061a3.534,3.534,0,0,0,2.438-3.526v-.033c0-2.34-1.609-3.754-4.291-3.754h-5.2V779.6h2.5v-3.639h1.966l2.438,3.639Zm-13.525-1.836-1.593-1.608a4.106,4.106,0,0,1-2.99,1.332,3.377,3.377,0,0,1-3.3-3.574v-.033a3.369,3.369,0,0,1,3.3-3.542,4.2,4.2,0,0,1,2.909,1.284l1.591-1.836a5.865,5.865,0,0,0-4.484-1.755,5.781,5.781,0,0,0-5.931,5.882v.032a5.741,5.741,0,0,0,5.833,5.85A5.816,5.816,0,0,0,4434.424,777.768Z" transform="translate(-4423.927 -710.34)" fill="#535353"></path><path id="Path_14095" data-name="Path 14095" d="M4578.245,866.988v-4.081h-.886v2.512l-1.912-2.512h-.828v4.081h.886v-2.594l1.977,2.594Zm-8.183-1.709h-1.083l.541-1.323Zm1.632,1.709-1.748-4.109h-.828l-1.749,4.109h.915l.375-.916h1.725l.373.916Zm-7.132-.577v-1.773h-1.773v.776h.9V866a1.432,1.432,0,0,1-.844.245,1.223,1.223,0,0,1-1.236-1.294v-.011a1.226,1.226,0,0,1,1.171-1.271,1.5,1.5,0,0,1,1.067.413l.565-.682a2.237,2.237,0,0,0-1.6-.56,2.094,2.094,0,0,0-2.139,2.11v.012a2.042,2.042,0,0,0,2.145,2.1A2.651,2.651,0,0,0,4564.562,866.411Zm-7.739-1.452a1.221,1.221,0,0,1-1.225,1.271,1.24,1.24,0,0,1-1.236-1.283v-.011a1.22,1.22,0,0,1,1.225-1.271,1.241,1.241,0,0,1,1.236,1.282Zm.938-.012v-.011a2.169,2.169,0,0,0-4.337.011v.012a2.169,2.169,0,0,0,4.337-.012Zm-6.894,2.041v-.817h-2.035v-3.264h-.9v4.081Zm-6.008-1.207v-.011c0-.712-.467-1.009-1.294-1.224-.706-.181-.882-.268-.882-.537V864c0-.2.182-.356.525-.356a1.916,1.916,0,0,1,1.061.4l.467-.676a2.36,2.36,0,0,0-1.516-.519,1.275,1.275,0,0,0-1.427,1.23v.012c0,.81.53,1.037,1.352,1.247.683.175.822.292.822.519v.012c0,.239-.222.385-.589.385a1.876,1.876,0,0,1-1.219-.5l-.53.635a2.6,2.6,0,0,0,1.732.653C4544.24,867.047,4544.859,866.592,4544.859,865.781Zm-10.463-1.469c0,.344-.249.577-.687.577h-.909v-1.171h.892c.437,0,.7.2.7.583Zm1.034,2.676-1-1.457a1.268,1.268,0,0,0,.875-1.265v-.012c0-.839-.578-1.346-1.539-1.346H4531.9v4.081h.9v-1.306h.706l.874,1.306Zm-6.737-1.778v-2.3h-.9v2.337c0,.647-.332.98-.879.98s-.881-.344-.881-1.009v-2.308h-.9v2.332a1.62,1.62,0,0,0,1.767,1.813A1.642,1.642,0,0,0,4528.692,865.211Zm-7.523-.251a1.221,1.221,0,0,1-1.225,1.271,1.24,1.24,0,0,1-1.236-1.283v-.011a1.221,1.221,0,0,1,1.225-1.271,1.24,1.24,0,0,1,1.236,1.282Zm.938-.012v-.011a2.169,2.169,0,0,0-4.336.011v.012a2.169,2.169,0,0,0,4.336-.012Zm-6.66-2.04h-1.021l-.991,1.638-.974-1.638h-1.049l1.568,2.471v1.609h.9v-1.627Z" transform="translate(-4497.22 -789.764)" fill="#535353"></path><path id="Path_14101" data-name="Path 14101" d="M4615.932,455.173h19.744V445.3h13.179V425.535c-6.635,0-13.173.057-19.769.057v6.532h13.179v6.59h-13.179v9.87h-6.564V418.971h26.333v-6.59h-32.922v42.792" transform="translate(-4584.785 -412.381)" fill="#535353" fill-rule="evenodd"></path></g></g></svg>