<svg xmlns="http://www.w3.org/2000/svg" xmlns:xlink="http://www.w3.org/1999/xlink" width="160" height="80" viewBox="0 0 160 80"><defs><clipPath id="clip-Artboard_5"><rect width="160" height="80"></rect></clipPath></defs><g id="Artboard_5" data-name="Artboard &#x2013; 5" clip-path="url(#clip-Artboard_5)"><g id="Group_5108" data-name="Group 5108" transform="translate(28.633 0.962)"><path id="Path_14096" data-name="Path 14096" d="M5331.5,770.644h6.566v-2.4h-9.246v2.4Zm6.655,9.859v-2.4H5331.5V775.53h5.779v-2.4h-8.459V780.5ZM5325.1,768.245H5322.2l-3.205,8.634-3.206-8.634h-2.977l4.957,12.346h2.382ZM5308.965,780.5V768.245h-2.7V780.5Zm-6.715-9.771v-2.487h-10.157v2.487h3.73V780.5h2.7v-9.771Zm-11.426,9.771-5.253-12.346h-2.488l-5.254,12.346h2.75c1.8-4.4,1.855-4.572,3.712-9.106,1.893,4.62,1.862,4.566,3.713,9.106ZM5268,770.644h6.568v-2.4h-9.247v2.4Zm6.655,9.859v-2.4H5268V775.53h5.78v-2.4h-8.459V780.5Zm-16.33-8.038c0,1.033-.753,1.734-2.066,1.734h-2.731v-3.52h2.679c1.313,0,2.119.6,2.119,1.751Zm3.1,8.038-2.994-4.377a3.81,3.81,0,0,0,2.627-3.8v-.035c0-2.522-1.734-4.046-4.624-4.046h-5.6V780.5h2.7v-3.922h2.119l2.626,3.922Zm-14.578-1.978-1.717-1.734a4.425,4.425,0,0,1-3.223,1.435,3.64,3.64,0,0,1-3.554-3.852v-.036a3.632,3.632,0,0,1,3.554-3.818,4.53,4.53,0,0,1,3.136,1.384l1.715-1.979a6.319,6.319,0,0,0-4.833-1.891,6.231,6.231,0,0,0-6.392,6.34v.034a6.188,6.188,0,0,0,6.288,6.3A6.268,6.268,0,0,0,5246.844,778.525Z" transform="translate(-5235.53 -711.268)" fill="#535353"></path><path id="Path_14097" data-name="Path 14097" d="M5395.049,867.311v-4.4h-.955v2.707l-2.061-2.707h-.893v4.4h.955v-2.8l2.13,2.8Zm-8.82-1.841h-1.168l.584-1.425Zm1.761,1.841-1.885-4.429h-.893l-1.885,4.429h.986l.4-.987h1.859l.4.987Zm-7.688-.622v-1.911h-1.91v.836h.973v.628a1.548,1.548,0,0,1-.912.264,1.318,1.318,0,0,1-1.332-1.4V865.1a1.32,1.32,0,0,1,1.262-1.37,1.622,1.622,0,0,1,1.15.446l.609-.734a2.413,2.413,0,0,0-1.727-.6,2.257,2.257,0,0,0-2.306,2.274v.012a2.2,2.2,0,0,0,2.312,2.262A2.859,2.859,0,0,0,5380.3,866.69Zm-8.342-1.565a1.316,1.316,0,0,1-1.32,1.37,1.337,1.337,0,0,1-1.333-1.383V865.1a1.316,1.316,0,0,1,1.32-1.37,1.336,1.336,0,0,1,1.332,1.382Zm1.011-.012V865.1a2.338,2.338,0,0,0-4.674.012v.012a2.338,2.338,0,0,0,4.674-.012Zm-7.43,2.2v-.88h-2.193v-3.518h-.967v4.4Zm-6.476-1.3V866c0-.767-.5-1.088-1.395-1.32-.76-.195-.949-.289-.949-.578v-.012c0-.214.195-.383.566-.383a2.065,2.065,0,0,1,1.143.434l.5-.729a2.543,2.543,0,0,0-1.633-.559,1.376,1.376,0,0,0-1.54,1.325v.013c0,.873.572,1.118,1.458,1.344.736.189.887.315.887.559v.013c0,.258-.239.414-.635.414a2.011,2.011,0,0,1-1.312-.534l-.573.685a2.8,2.8,0,0,0,1.866.7C5358.4,867.374,5359.065,866.884,5359.065,866.01Zm-11.275-1.583c0,.371-.271.622-.742.622h-.98v-1.262h.961c.472,0,.761.214.761.628Zm1.112,2.884-1.075-1.571a1.367,1.367,0,0,0,.942-1.364v-.012c0-.9-.622-1.451-1.659-1.451h-2.01v4.4h.967V865.9h.761l.941,1.407Zm-7.262-1.916v-2.482h-.967v2.519c0,.7-.359,1.056-.949,1.056s-.949-.371-.949-1.088v-2.488h-.968v2.513a1.745,1.745,0,0,0,1.9,1.954A1.77,1.77,0,0,0,5341.64,865.4Zm-8.108-.271a1.315,1.315,0,0,1-1.32,1.37,1.336,1.336,0,0,1-1.332-1.383V865.1a1.315,1.315,0,0,1,1.319-1.37,1.336,1.336,0,0,1,1.333,1.382Zm1.011-.012V865.1a2.338,2.338,0,0,0-4.674.012v.012a2.338,2.338,0,0,0,4.674-.012Zm-7.179-2.2h-1.1l-1.068,1.765-1.049-1.765h-1.131l1.69,2.664v1.734h.969v-1.754Z" transform="translate(-5307.719 -789.495)" fill="#535353"></path><path id="Path_14102" data-name="Path 14102" d="M5426.468,457.049h-5.778l-5.184,6.61-1.8,2.29-1.795-2.29-5.186-6.61h-5.778l8.767,11.175,1.108,1.412-1.108,1.411-6.625,8.446h5.771Zm28.12-13.685-10.735,13.685h-11.577l-21.2,27.02h-17.387l11.322-14.432-13.463-17.163h17.378l4.777,6.09,4.777-6.09h11.571l7.146-9.11Zm-9.4,4.576h-5.771l-3.557,4.534h5.771Z" transform="translate(-5364.273 -443.364)" fill="#535353" fill-rule="evenodd"></path></g></g></svg>