<svg xmlns="http://www.w3.org/2000/svg" width="18.646" height="18.641" viewBox="0 0 18.646 18.641">
  <g id="Group_4493" data-name="Group 4493" transform="translate(-620.767 -319.956)">
    <rect id="Rectangle_850" data-name="Rectangle 850" width="10.94" height="11.415" transform="translate(624.597 323.331)" fill="#0d1422"/>
    <path id="Path_12797" data-name="Path 12797" d="M639.412,329.47a9.323,9.323,0,1,1-9.1-9.511A9.313,9.313,0,0,1,639.412,329.47Zm-4.971.078a1.863,1.863,0,0,0,.461.016.62.62,0,0,0,.237-1.085q-2.264-2.267-4.532-4.532a.642.642,0,0,0-1.04,0l-4.491,4.491a1.554,1.554,0,0,0-.145.156.611.611,0,0,0,.655.959l.151-.038v.228c0,1.042,0,2.084,0,3.127a1.332,1.332,0,0,0,1.373,1.375q2.981,0,5.963,0a1.331,1.331,0,0,0,1.366-1.362c0-.965,0-1.929,0-2.894Z" transform="translate(0 0)" fill="#f6f6f6"/>
    <path id="Path_12798" data-name="Path 12798" d="M743.6,421.044q1.515,1.514,3.021,3.024a.29.29,0,0,1,.068.187c0,1.469,0,2.938.005,4.407,0,.146-.054.19-.194.189q-2.912,0-5.825,0c-.152,0-.2-.049-.2-.2,0-1.462,0-2.925.005-4.387a.292.292,0,0,1,.063-.189q1.507-1.513,3.021-3.018S743.57,421.051,743.6,421.044Z" transform="translate(-113.491 -95.843)" fill="#f6f6f6"/>
  </g>
</svg>
