<svg xmlns="http://www.w3.org/2000/svg" xmlns:xlink="http://www.w3.org/1999/xlink" width="160" height="80" viewBox="0 0 160 80"><defs><clipPath id="clip-Artboard_1"><rect width="160" height="80"></rect></clipPath></defs><g id="Artboard_1" data-name="Artboard &#x2013; 1" clip-path="url(#clip-Artboard_1)"><g id="Group_5112" data-name="Group 5112" transform="translate(32 1)"><path id="Path_14088" data-name="Path 14088" d="M2079.033,770.479h6.153v-2.248h-8.663v2.248Zm6.236,9.238v-2.248h-6.236v-2.412h5.415V772.81h-7.926v6.907Zm-12.232-11.486h-2.723l-3,8.089-3-8.089h-2.789l4.644,11.568h2.231Zm-15.12,11.486V768.232h-2.526v11.486Zm-6.292-9.155v-2.33h-9.517v2.33h3.5v9.155h2.526v-9.155Zm-10.706,9.155L2036,768.15h-2.33l-4.923,11.567h2.577c1.682-4.127,1.738-4.284,3.479-8.532,1.773,4.328,1.744,4.278,3.478,8.532Zm-21.387-9.238h6.153v-2.248h-8.663v2.248Zm6.235,9.238v-2.248h-6.235v-2.412h5.414V772.81h-7.924v6.907Zm-15.3-7.531c0,.968-.706,1.624-1.936,1.624h-2.56v-3.3h2.51c1.23,0,1.985.558,1.985,1.641Zm2.9,7.531-2.805-4.1a3.568,3.568,0,0,0,2.461-3.561v-.033c0-2.363-1.624-3.791-4.332-3.791h-5.25v11.486h2.527v-3.675h1.986l2.461,3.675Zm-13.659-1.854-1.608-1.624a4.147,4.147,0,0,1-3.02,1.345,3.411,3.411,0,0,1-3.33-3.609v-.033a3.4,3.4,0,0,1,3.33-3.577,4.243,4.243,0,0,1,2.938,1.3l1.607-1.854a5.925,5.925,0,0,0-4.528-1.772,5.838,5.838,0,0,0-5.99,5.94v.032a5.8,5.8,0,0,0,5.891,5.907A5.872,5.872,0,0,0,1999.712,777.864Z" transform="translate(-1989.112 -709.771)" fill="#535353"></path><path id="Path_14089" data-name="Path 14089" d="M2144.089,867.029v-4.121h-.9v2.536l-1.931-2.536h-.836v4.121h.894v-2.62l2,2.62Zm-8.263-1.725h-1.1l.548-1.336Zm1.648,1.725-1.766-4.15h-.836l-1.766,4.15h.925l.376-.925h1.743l.377.925Zm-7.2-.583v-1.79h-1.789v.783h.913v.588a1.451,1.451,0,0,1-.854.247,1.235,1.235,0,0,1-1.248-1.307v-.012a1.238,1.238,0,0,1,1.183-1.283,1.519,1.519,0,0,1,1.077.418l.571-.688a2.262,2.262,0,0,0-1.619-.565,2.115,2.115,0,0,0-2.161,2.131v.012a2.063,2.063,0,0,0,2.167,2.119A2.675,2.675,0,0,0,2130.271,866.447Zm-7.816-1.466a1.232,1.232,0,0,1-1.236,1.284,1.252,1.252,0,0,1-1.248-1.3v-.012a1.232,1.232,0,0,1,1.236-1.283,1.252,1.252,0,0,1,1.248,1.295Zm.948-.012v-.012a2.191,2.191,0,0,0-4.38.012v.012a2.191,2.191,0,0,0,4.38-.012Zm-6.962,2.061V866.2h-2.055v-3.3h-.906v4.121Zm-6.068-1.219V865.8c0-.719-.471-1.019-1.306-1.237-.712-.182-.889-.271-.889-.542v-.012c0-.2.183-.359.529-.359a1.936,1.936,0,0,1,1.072.406l.471-.683a2.387,2.387,0,0,0-1.531-.524,1.289,1.289,0,0,0-1.442,1.242v.012c0,.818.535,1.047,1.366,1.259.688.177.83.295.83.524v.012c0,.242-.224.388-.594.388a1.89,1.89,0,0,1-1.23-.5l-.536.642a2.622,2.622,0,0,0,1.749.66C2109.75,867.088,2110.374,866.629,2110.374,865.81Zm-10.564-1.483c0,.348-.253.583-.695.583h-.919v-1.183h.9c.442,0,.713.2.713.588Zm1.042,2.7-1.007-1.472a1.28,1.28,0,0,0,.883-1.278v-.012c0-.847-.583-1.36-1.554-1.36h-1.884v4.121h.906v-1.319h.713l.883,1.319Zm-6.8-1.8v-2.326h-.907v2.36c0,.653-.335.989-.888.989s-.89-.348-.89-1.019v-2.331h-.906v2.355a1.635,1.635,0,0,0,1.784,1.83A1.658,1.658,0,0,0,2094.049,865.234Zm-7.6-.254a1.233,1.233,0,0,1-1.236,1.284,1.252,1.252,0,0,1-1.248-1.3v-.012a1.232,1.232,0,0,1,1.237-1.283,1.251,1.251,0,0,1,1.247,1.295Zm.948-.012v-.012a2.191,2.191,0,0,0-4.38.012v.012a2.191,2.191,0,0,0,4.38-.012Zm-6.726-2.06h-1.031l-1,1.654-.983-1.654h-1.06l1.583,2.5v1.625h.906v-1.643Z" transform="translate(-2062.266 -789.043)" fill="#535353"></path><path id="Path_14098" data-name="Path 14098" d="M2173.18,451.544h-31.2l-2.338,4.048h40.55l-20.271-35.111-2.337,4.049q7.8,13.508,15.6,27.015m-17.938-31.069,2.337-4.049-2.336-4.048-2.338,4.048Zm-4.678,8.1,8.584,14.869h-12.495l-2.337,4.048h21.844l-15.6-27.015-20.271,35.111h4.675Z" transform="translate(-2107.163 -412.378)" fill="#535353" fill-rule="evenodd"></path></g></g></svg>