<svg xmlns="http://www.w3.org/2000/svg" width="45" height="44.999" viewBox="0 0 45 44.999">
  <g id="Group_5221" data-name="Group 5221" transform="translate(-1333 -2525)">
    <g id="Group_5173" data-name="Group 5173" transform="translate(-1272.472 2100.941)">
      <path id="Path_14061" data-name="Path 14061" d="M2650.472,448.844v8.788a1.386,1.386,0,0,0-.081.2,3.483,3.483,0,0,1-2.954,2.749c-.382.06-.776.047-1.184.069,0,2.26,0,4.486,0,6.711,0,1.176-.515,1.7-1.676,1.7h-9.316a1.455,1.455,0,0,1-1.664-1.668V456.424h-7.031c0,.382.028.747-.007,1.106a.621.621,0,0,0,.435.72,4.169,4.169,0,1,1-3.267-.2V456.4h-15.135c-1.2,0-1.712-.514-1.712-1.707V426.9c-.131-.027-.218-.038-.3-.061a1.431,1.431,0,0,1-1.1-1.23,1.417,1.417,0,0,1,.864-1.443c.063-.031.123-.069.184-.1h36.561c.075.041.148.085.224.124a1.4,1.4,0,0,1-.232,2.642c-.107.031-.217.055-.343.086,0,.439,0,.863,0,1.287a1.407,1.407,0,1,1-2.81,0c-.005-.434,0-.867,0-1.3h-30.214v26.65h22.86l-.562-.415q-3.86-2.832-7.721-5.66a2.643,2.643,0,0,1-1.151-1.6,2.937,2.937,0,0,1,1.04-2.951,2.517,2.517,0,0,1,2.791-.4q3.946,1.59,7.9,3.167a1.273,1.273,0,0,0,.41.146c1.232.012,2.462.006,3.694.006a7.416,7.416,0,0,1,.495-14.749,7.371,7.371,0,0,1,7.723,6.077,7.081,7.081,0,0,1-1.314,5.653,7.593,7.593,0,0,1-4.973,3.024h.524c1.817,0,3.633-.005,5.448,0a3.5,3.5,0,0,1,3.521,2.79A1.275,1.275,0,0,0,2650.472,448.844Zm-7.063,17.4v-5.624c-1.246,0-2.461.006-3.675,0a2.6,2.6,0,0,1-1.112-4.97c1.836-.871,3.68-1.726,5.525-2.58a1.408,1.408,0,1,1,1.179,2.548c-1.27.6-2.544,1.189-3.816,1.783-.231.108-.46.223-.69.335l.016.073h5.865c.739,0,.958-.224.959-.977q0-3.581,0-7.162c0-.8-.208-1-1.022-1-3.793,0-7.587,0-11.38-.007a2.745,2.745,0,0,1-.981-.174c-2.6-1.025-5.186-2.072-7.778-3.111-.1-.042-.209-.073-.313-.108a.778.778,0,0,0,.253.27q4.579,3.373,9.165,6.738a1.806,1.806,0,0,1,.815,1.593c-.017,3.939-.008,7.88-.008,11.82v.53a1.889,1.889,0,0,0,.2.027Zm-3.5-23.2a4.57,4.57,0,1,0-4.551-4.565A4.582,4.582,0,0,0,2639.907,443.042Zm-14.745,17.58a1.4,1.4,0,1,0,1.4,1.4A1.41,1.41,0,0,0,2625.161,460.623Z" transform="translate(0 0)" fill="#fbcd21"/>
      <path id="Path_14062" data-name="Path 14062" d="M2621.837,432.757c2.329,0,4.658,0,6.986,0a1.384,1.384,0,0,1,1.374,1.024,1.332,1.332,0,0,1-.571,1.529,1.7,1.7,0,0,1-.822.245q-6.987.023-13.972.008a1.4,1.4,0,1,1,.02-2.807C2617.18,432.752,2619.509,432.757,2621.837,432.757Z" transform="translate(-0.876 -0.963)" fill="#fbcd21"/>
      <path id="Path_14063" data-name="Path 14063" d="M2618.346,439.082c1.112,0,2.226,0,3.338,0a1.41,1.41,0,1,1,.021,2.81q-3.405.007-6.81,0a1.41,1.41,0,1,1,.023-2.81C2616.061,439.079,2617.2,439.082,2618.346,439.082Z" transform="translate(-0.876 -1.664)" fill="#fbcd21"/>
      <path id="Path_14064" data-name="Path 14064" d="M2614.776,453.753a1.4,1.4,0,1,1,1.414-1.385A1.417,1.417,0,0,1,2614.776,453.753Z" transform="translate(-0.876 -2.978)" fill="#fbcd21"/>
    </g>
  </g>
</svg>
