<svg id="Group_4560" data-name="Group 4560" xmlns="http://www.w3.org/2000/svg" width="63.123" height="42.553" viewBox="0 0 63.123 42.553">
  <g id="Group_4551" data-name="Group 4551" transform="translate(1.946 1.269)">
    <g id="Group_4550" data-name="Group 4550">
      <path id="Path_12792" data-name="Path 12792" d="M608.641,444.772c7.113-1.968,15.531-.134,21.835,3.44,6.033,3.421,12.73,10.032,11.231,17.669-.546,2.781-2.748,5.218-5.767,4.091a4.961,4.961,0,0,1-2.656-6.8C636.4,456,647,458.557,652.164,461.6a24.243,24.243,0,0,1,8.111,7.817c1.892,2.966,3.584,6.814,3.312,10.4a.533.533,0,0,1-1.018.071,35.747,35.747,0,0,0-2.257-7.647,22.755,22.755,0,0,0-5.141-6.771c-4.181-3.788-10.838-6.85-16.56-5.217-3.033.865-6.583,5-3.449,7.843a2.95,2.95,0,0,0,4.353-.055,7.064,7.064,0,0,0,1.173-4.819c-.39-6.488-6.162-11.635-11.5-14.529a31.24,31.24,0,0,0-9.694-3.329,38.544,38.544,0,0,0-10.721.035.322.322,0,0,1-.129-.622Z" transform="translate(-608.432 -443.968)" fill="#fbcd21"/>
    </g>
  </g>
  <g id="Group_4553" data-name="Group 4553" transform="translate(0)">
    <g id="Group_4552" data-name="Group 4552">
      <path id="Path_12793" data-name="Path 12793" d="M601.53,446.262c7.171-3.976,16.077-3.058,22.894,1.238a32.67,32.67,0,0,1,8.455,7.859c2.4,3.139,4.863,6.959,5.383,10.955.362,2.786-.785,7.425-4.458,7.073-3.232-.31-6.326-3.89-6.52-7.041-.218-3.529,2.879-6.159,6.085-6.817,3.825-.785,8.023.538,11.457,2.192a28.5,28.5,0,0,1,15.24,18.769c.184.775-.987,1.2-1.181.416a27.5,27.5,0,0,0-9.591-14.882,26.4,26.4,0,0,0-8.115-4.415c-3.362-1.11-7.571-1.88-10.6.451-3.346,2.572-2.219,6.757.822,9.027,1.775,1.325,3.891,1.719,5.132-.525,1.008-1.822.747-4.143.143-6.05-1.939-6.111-6.84-11.983-12.086-15.558-6.578-4.483-15.391-5.862-22.589-2.009-.462.247-.93-.422-.465-.681Z" transform="translate(-601.338 -443.726)" fill="#fbcd21"/>
    </g>
  </g>
  <g id="Group_4555" data-name="Group 4555" transform="translate(50.904 28.708)">
    <g id="Group_4554" data-name="Group 4554" transform="translate(0)">
      <path id="Path_12794" data-name="Path 12794" d="M787.729,439c1.367.948,2.607,2.111,3.883,3.178l1.81,1.515c.279.233,1.595,1.628,1.944,1.519a11.006,11.006,0,0,0,.465-2.289q.232-1.144.465-2.289c.3-1.489.378-3.361,1.173-4.673a.554.554,0,0,1,1.04.205,8.963,8.963,0,0,1-.417,3.044l-.725,3.428c-.224,1.058-.234,3.62-1.519,4.068-1.226.428-2.665-1.6-3.449-2.286-1.761-1.543-3.677-3.011-5.291-4.706a.473.473,0,0,1,.621-.714Z" transform="translate(-786.956 -435.672)" fill="#fbcd21"/>
    </g>
  </g>
  <g id="Group_4557" data-name="Group 4557" transform="translate(51.449 29.282)">
    <g id="Group_4556" data-name="Group 4556" transform="translate(0)">
      <path id="Path_12795" data-name="Path 12795" d="M789.549,429.784a47.948,47.948,0,0,1,3.256,4.355,43.192,43.192,0,0,0,4.079,4.719l-1.171.4c.427-1.891.776-3.8,1.019-5.724.236-1.871.04-3.97.558-5.771.151-.524,1.039-.737,1.194-.083.412,1.739.01,3.847-.2,5.6a51.465,51.465,0,0,1-1.166,6.258.725.725,0,0,1-1.292.261c-1.285-1.591-2.614-3.139-3.825-4.789a21.117,21.117,0,0,1-3.035-4.83c-.12-.328.325-.668.586-.4Z" transform="translate(-788.943 -427.27)" fill="#fbcd21"/>
    </g>
  </g>
  <g id="Group_4559" data-name="Group 4559" transform="translate(50.845 29.163)">
    <g id="Group_4558" data-name="Group 4558" transform="translate(0)">
      <path id="Path_12796" data-name="Path 12796" d="M787.649,426.765c2.737,3.725,5.454,7.465,8.233,11.159l-1.292.261c.673-2.068,1.329-4.133,1.852-6.245.481-1.943.626-4.107,1.386-5.954a.625.625,0,0,1,1.175.232c.138,2.063-.624,4.318-1.14,6.3a58.341,58.341,0,0,1-1.931,6.128.721.721,0,0,1-1.232.086c-2.587-3.827-5.236-7.612-7.866-11.409a.494.494,0,0,1,.815-.556Z" transform="translate(-786.742 -425.646)" fill="#fbcd21"/>
    </g>
  </g>
</svg>
