<svg xmlns="http://www.w3.org/2000/svg" width="43" height="42.992" viewBox="0 0 43 42.992">
  <g id="Group_5240" data-name="Group 5240" transform="translate(-1730.378 268.373)">
    <path id="Path_14078" data-name="Path 14078" d="M1730.378-238.4v-23.418a7.361,7.361,0,0,1,.375-1.4,3.225,3.225,0,0,1,3.159-1.87h14.848c0-.631-.015-1.19,0-1.748a1.5,1.5,0,0,1,1.582-1.528c1.119,0,2.239-.02,3.356.013a1.617,1.617,0,0,1,.834.3,1.517,1.517,0,0,1,.608,1.319c0,.539,0,1.079,0,1.642h.559c4.742,0,9.483-.006,14.226.009a5.36,5.36,0,0,1,1.36.193,3.121,3.121,0,0,1,2.092,2.826c-.047,8.043-.02,16.086-.032,24.128a2.246,2.246,0,0,1-.221.961,3.208,3.208,0,0,1-3.1,1.832c-1.735.009-3.469,0-5.2,0h-.5c.083.164.133.276.194.381q2.272,3.939,4.547,7.878c.5.873.152,1.49-.846,1.491-1.442,0-2.882-.015-4.323.009a1.16,1.16,0,0,1-1.142-.673c-.646-1.16-1.336-2.295-1.976-3.457a.727.727,0,0,0-.754-.425c-3.077.015-6.155.01-9.232.007-.618,0-1-.326-1.017-.825-.015-.518.378-.846,1.022-.854.1,0,.2,0,.293,0h8.4a.578.578,0,0,0-.026-.155c-.612-1.066-1.221-2.135-1.849-3.191a.5.5,0,0,0-.371-.178q-5.287-.013-10.574,0a.581.581,0,0,0-.413.245c-.33.518-.625,1.059-.932,1.591q-2.117,3.667-4.231,7.335a.931.931,0,0,1-.818.565c-1.608,0-3.218.009-4.826,0a.789.789,0,0,1-.831-.773,1.682,1.682,0,0,1,.245-.738q2.233-3.891,4.483-7.77c.079-.136.142-.279.235-.464h-.53c-1.72,0-3.441.006-5.16,0a3.224,3.224,0,0,1-3.146-1.894A7.441,7.441,0,0,1,1730.378-238.4Zm22.954-10.945c.139-.164.231-.289.339-.4q3.812-3.814,7.627-7.627c.711-.711,1.034-.711,1.75,0q4.154,4.154,8.309,8.308c.114.114.235.221.4.377.016-.146.032-.222.032-.3,0-4.266.009-8.533-.015-12.8a2.035,2.035,0,0,0-.352-1.041,1.618,1.618,0,0,0-1.491-.59q-17.96.007-35.922,0c-1.342,0-1.906.568-1.906,1.921q0,11.373,0,22.745a3.6,3.6,0,0,0,.033.628,1.474,1.474,0,0,0,1.044,1.2,1.206,1.206,0,0,0,1.382-.348q7.271-7.326,14.589-14.61c.65-.65,1.009-.65,1.659,0C1751.635-251.052,1752.451-250.23,1753.332-249.346Zm-16.767,12.524h33.356c1.287,0,1.87-.583,1.871-1.872,0-2.365,0-4.728.006-7.092a.98.98,0,0,0-.314-.77q-4.522-4.5-9.028-9.016c-.095-.095-.2-.181-.234-.215l-7.662,7.662c.936.936,1.906,1.9,2.873,2.873a3,3,0,0,1,.332.377.761.761,0,0,1,.023.9.706.706,0,0,1-.821.362,1.626,1.626,0,0,1-.66-.4q-3.01-2.984-6-5.988c-.105-.1-.215-.2-.289-.273Zm.34,9.752c.929,0,1.782.012,2.633-.013a.581.581,0,0,0,.4-.27q2.173-3.729,4.32-7.472c.05-.088.083-.185.142-.315-.852,0-1.648.015-2.444-.007a.6.6,0,0,0-.621.361c-1.392,2.438-2.8,4.867-4.2,7.3C1737.064-227.372,1737-227.251,1736.905-227.07Zm30.029,0c0-.063.01-.095,0-.114q-2.237-3.887-4.479-7.767a.373.373,0,0,0-.247-.178c-.889-.013-1.779-.007-2.671-.007,0,.067-.01.1,0,.118q2.237,3.887,4.481,7.767a.366.366,0,0,0,.248.174C1765.155-227.067,1766.045-227.072,1766.934-227.072Zm-16.477-38.049h2.971v-1.628h-2.971Z" transform="translate(0)" fill="#eef9ff"/>
    <path id="Path_14079" data-name="Path 14079" d="M1742.115-241.532a.857.857,0,0,1-.818-.838.84.84,0,0,1,.863-.827.853.853,0,0,1,.8.852A.873.873,0,0,1,1742.115-241.532Z" transform="translate(5.029 11.595)" fill="#eef9ff"/>
    <path id="Path_14080" data-name="Path 14080" d="M1737.034-254.58a3.524,3.524,0,0,1-3.51-3.533,3.551,3.551,0,0,1,3.533-3.52,3.583,3.583,0,0,1,3.523,3.545A3.553,3.553,0,0,1,1737.034-254.58Zm.019-1.683a1.849,1.849,0,0,0,1.844-1.834,1.881,1.881,0,0,0-1.839-1.855,1.851,1.851,0,0,0-1.849,1.872A1.819,1.819,0,0,0,1737.052-256.263Z" transform="translate(1.449 3.104)" fill="#eef9ff"/>
    <path id="Path_14081" data-name="Path 14081" d="M1751.483-249.96a.818.818,0,0,1-.843.8.84.84,0,0,1-.817-.84.846.846,0,0,1,.852-.809A.827.827,0,0,1,1751.483-249.96Z" transform="translate(8.956 8.091)" fill="#eef9ff"/>
  </g>
</svg>
