<svg xmlns="http://www.w3.org/2000/svg" width="64.995" height="66.385" viewBox="0 0 64.995 66.385">
  <g id="Group_7194" data-name="Group 7194" transform="translate(-853.672 -489)">
    <path id="Path_23896" data-name="Path 23896" d="M888.365,555.385c-1.44-1.568-2.888-3.129-4.316-4.707-1.563-1.729-3.093-3.488-4.664-5.21a5.659,5.659,0,0,0-3.972-1.763c-1.46-.1-2.927-.178-4.373-.391a7.07,7.07,0,0,1-3.955-2.053c-1.689-1.668-3.332-3.382-5.134-5.22-.617.68-1.129,1.323-1.722,1.878a3.7,3.7,0,0,1-3.891.87,3.852,3.852,0,0,1-1.6-6.3c.563-.593,1.183-1.129,1.8-1.713a4.568,4.568,0,0,1-1.307-3.045,4.205,4.205,0,0,1,2.926-4.067c.311-.105.464-.2.452-.563a4.283,4.283,0,0,1,2.959-4.373,4.412,4.412,0,0,1,.491-3.628,4.2,4.2,0,0,1,2.244-1.755,9.5,9.5,0,0,1,.15-1.331,2.514,2.514,0,0,1,1.286-1.628c2.53-1.387,5.053-2.79,7.6-4.151a3.912,3.912,0,0,1,3.9.054.7.7,0,0,0,1.026-.158q7.667-7.715,15.356-15.413A6.915,6.915,0,0,1,896.131,489h1.682c.044.041.081.1.133.12a3.887,3.887,0,0,1,2.745,4.859c.02.033.034.085.066.1a17,17,0,0,1,6.489,6.436c1.107,1.749,2.157,3.537,3.3,5.264a12.612,12.612,0,0,0,5.2,4.821c.333.152.681.269,1.012.422a1.284,1.284,0,0,1,.457,2.131c-.1.114-.21.218-.317.325q-5.421,5.431-10.835,10.87a1.755,1.755,0,0,1-2.136.475,13.731,13.731,0,0,1-6.262-5.035c-1.168-1.653-2.21-3.4-3.285-5.114a20.848,20.848,0,0,0-4.2-5.385c-.759-.622-1.619-1.12-2.4-1.648l-4.421,4.446c.107.116.246.276.393.424,1.433,1.437,2.843,2.9,4.306,4.3a8.648,8.648,0,0,1,2.6,8.724,16.946,16.946,0,0,0-.365,2.813,4.776,4.776,0,0,0,2,4.138c2.46,1.968,4.935,3.916,7.383,5.9a2.151,2.151,0,0,1,.691.963,1.125,1.125,0,0,1-.554,1.335,1.322,1.322,0,0,1-1.617-.155q-2.48-1.977-4.964-3.949c-.912-.726-1.838-1.434-2.73-2.182a7.487,7.487,0,0,1-2.811-6.7,31.721,31.721,0,0,1,.506-3.253,5.562,5.562,0,0,0-1.447-5.207c-3.383-3.455-6.817-6.859-10.239-10.275a1.666,1.666,0,0,0-2.07-.367c-2.482,1.339-4.95,2.7-7.465,4.078a3.074,3.074,0,0,0,2.37,1.5,7.526,7.526,0,0,0,4.289-.945c1.082-.557,1.434-.506,2.277.337,1.724,1.727,3.451,3.448,5.167,5.183a1.322,1.322,0,0,1,.076,1.957,1.345,1.345,0,0,1-1.911-.1,6.218,6.218,0,0,1-.457-.458c-.169-.2-.322-.406-.538-.684a4.471,4.471,0,0,1-3.315,2.638,4.384,4.384,0,0,1-3.611,4.651A4.34,4.34,0,0,1,868,531.347a4.431,4.431,0,0,1-2.465,4.643c.108.133.2.265.309.376.653.659,1.365,1.269,1.956,1.98a7.559,7.559,0,0,0,6.175,2.679,17.6,17.6,0,0,1,3.825.506,6.874,6.874,0,0,1,3.562,2.234q4.084,4.558,8.162,9.121c.921,1.031.852,1.695-.257,2.5Zm25.619-42.729c-2.952-1.581-4.85-4.127-6.556-6.857-1.051-1.682-2.069-3.387-3.174-5.033a12.419,12.419,0,0,0-4.585-4.287.706.706,0,0,0-.991.14c-2.866,2.9-5.755,5.784-8.637,8.673-.128.129-.242.273-.327.369.877.674,1.751,1.27,2.538,1.966a24.261,24.261,0,0,1,4.283,5.574c1.1,1.755,2.183,3.519,3.364,5.217a11.1,11.1,0,0,0,4.044,3.559.657.657,0,0,0,.928-.146q4.325-4.377,8.684-8.718C913.693,512.978,913.819,512.833,913.984,512.656Zm-32.5-2.518c.12-.11.265-.235.4-.37q7.841-7.853,15.681-15.708a3.424,3.424,0,0,0,.426-.483,1.236,1.236,0,0,0-.572-1.874c-.679-.279-1.147.063-1.6.514q-7.882,7.9-15.77,15.8c-.12.12-.232.247-.317.338Zm-15.676,5.63a1.622,1.622,0,0,0-1.258,2.832c1.641,1.652,3.275,3.31,4.925,4.953a1.6,1.6,0,1,0,2.265-2.252c-1.648-1.675-3.3-3.348-4.981-4.99A3.619,3.619,0,0,0,865.81,515.768Zm-6.312,10.2a1.922,1.922,0,0,0-1.506,1.01,1.576,1.576,0,0,0,.385,1.891q2.109,2.142,4.246,4.256a1.563,1.563,0,0,0,2.3.141,1.626,1.626,0,0,0-.062-2.369c-1.412-1.452-2.833-2.9-4.282-4.311A4.914,4.914,0,0,0,859.5,525.972Zm9.222,1.015a3.4,3.4,0,0,0-.5-.926c-1.383-1.456-2.8-2.882-4.219-4.3a1.6,1.6,0,1,0-2.263,2.244c.626.656,1.27,1.294,1.908,1.938.79.8,1.567,1.609,2.374,2.388a1.491,1.491,0,0,0,1.736.309A1.679,1.679,0,0,0,868.72,526.987Zm2.382-10.111c.738.753,1.464,1.61,2.308,2.327a1.526,1.526,0,0,0,2.438-.988,2.785,2.785,0,0,0-1.4-2.36.7.7,0,0,0-.365.063Q872.592,516.392,871.1,516.876Zm-11.056,17.609-1.748-1.916c-.562.573-1.121,1.11-1.639,1.683a1.226,1.226,0,0,0,.029,1.791,1.3,1.3,0,0,0,1.757-.021C859.016,535.5,859.562,534.953,860.046,534.485Z" transform="translate(0)" fill="#fbcd21"/>
    <path id="Path_23897" data-name="Path 23897" d="M918.661,557.32q-4.712-3.765-9.418-7.538a2.023,2.023,0,0,1-.647-.845,1.16,1.16,0,0,1,.5-1.414,1.29,1.29,0,0,1,1.617.11q1.8,1.42,3.595,2.852,2.681,2.133,5.358,4.271c1.127.9,1.089,1.752-.1,2.564Z" transform="translate(-1.821 -1.935)" fill="#fbcd21"/>
    <path id="Path_23898" data-name="Path 23898" d="M903.981,544.943a1.235,1.235,0,0,1,1.294-1.237,1.269,1.269,0,0,1,1.3,1.309,1.36,1.36,0,0,1-1.312,1.273A1.3,1.3,0,0,1,903.981,544.943Z" transform="translate(-1.67 -1.816)" fill="#fbcd21"/>
  </g>
</svg>
