<svg xmlns="http://www.w3.org/2000/svg" width="22.079" height="16.851" viewBox="0 0 22.079 16.851">
  <g id="Group_4797" data-name="Group 4797" transform="translate(-1487.473 -84.062)">
    <path id="Path_13081" data-name="Path 13081" d="M1525.315,100.079a8.489,8.489,0,0,0-4.678-2.36,20.556,20.556,0,0,0-2.181-.217c-.68-.044-.958-.3-.958-.993q0-5.73,0-11.46c0-.708.3-1.01,1-.985a8.54,8.54,0,0,1,5.418,1.765,9.147,9.147,0,0,1,1.228,1.372,1.1,1.1,0,0,1,.191.64q.017,5.988.008,11.977C1525.337,99.873,1525.328,99.928,1525.315,100.079Z" transform="translate(-27.434 0)" fill="#fbcd21"/>
    <path id="Path_13082" data-name="Path 13082" d="M1622.53,100.006v-.377c0-3.863-.008-7.726.014-11.589a1.868,1.868,0,0,1,.31-.989,6.9,6.9,0,0,1,4.85-2.8,14.352,14.352,0,0,1,1.756-.159.8.8,0,0,1,.91.895q.005,5.816,0,11.632c0,.605-.309.889-.955.9a10.434,10.434,0,0,0-5.01,1.206C1623.762,99.089,1623.178,99.558,1622.53,100.006Z" transform="translate(-123.41 -0.024)" fill="#fbcd21"/>
    <path id="Path_13083" data-name="Path 13083" d="M1644.305,115.787c.221,0,.378,0,.535,0a.775.775,0,0,1,.832.841q.008,6.207,0,12.415a.788.788,0,0,1-1.06.826,20.6,20.6,0,0,0-6.334-.452c-.583.06-1.162.161-1.834.257.136-.128.213-.213.3-.283a8.181,8.181,0,0,1,4.293-1.615c.4-.045.8-.062,1.2-.078a2.006,2.006,0,0,0,2.06-2.122c.008-3.075,0-6.15,0-9.225Z" transform="translate(-136.126 -28.987)" fill="#fbcd21"/>
    <path id="Path_13084" data-name="Path 13084" d="M1496.616,129.708a29.233,29.233,0,0,0-3.456-.231c-1.542.069-3.078.316-4.613.515-.673.087-1.071-.193-1.072-.866q-.006-6.164,0-12.328c0-.731.446-1.006,1.368-.839v.5q0,4.526,0,9.052a2.061,2.061,0,0,0,2.267,2.311,8.83,8.83,0,0,1,5.215,1.627c.091.069.18.143.266.218A.07.07,0,0,1,1496.616,129.708Z" transform="translate(0 -29.103)" fill="#fbcd21"/>
  </g>
</svg>
