<svg xmlns="http://www.w3.org/2000/svg" width="55.612" height="62" viewBox="0 0 55.612 62">
  <g id="Group_7193" data-name="Group 7193" transform="translate(-1175.739 -339.2)">
    <path id="Path_23887" data-name="Path 23887" d="M1196.166,401.2h-2.175c-.564-.139-1.137-.247-1.69-.422a9.714,9.714,0,0,1-5.335-4.025.89.89,0,0,0-.591-.386,8.808,8.808,0,0,1-8.182-9.482,1.314,1.314,0,0,0-.367-1.118,8.248,8.248,0,0,1-1-9.557,1.457,1.457,0,0,0,.011-1.676,8.587,8.587,0,0,1,1.626-10.518.613.613,0,0,0,.181-.776,8.82,8.82,0,0,1,3.783-10.332,1.014,1.014,0,0,0,.584-1.039,7.28,7.28,0,0,1,5.087-7.15,1.394,1.394,0,0,0,.7-.642,8.531,8.531,0,0,1,3.517-3.719,25.77,25.77,0,0,1,3.009-1.156h2.055a3.03,3.03,0,0,0,.385.136,8.269,8.269,0,0,1,4.37,2.39c.51.528.941,1.132,1.437,1.733.1-.131.194-.252.28-.38a8.584,8.584,0,0,1,4.6-3.514c.415-.134.836-.243,1.256-.365h2.055c.03.024.059.064.093.071a8.866,8.866,0,0,1,6.516,4.965,1.067,1.067,0,0,0,.557.464,7.28,7.28,0,0,1,5.144,7.291.837.837,0,0,0,.488.848,8.819,8.819,0,0,1,3.863,10.459.586.586,0,0,0,.2.718,8.485,8.485,0,0,1,1.052,1.161c2.15,3.041,2.133,6.218.527,9.472-.2.411-.445.719-.124,1.249a8.269,8.269,0,0,1-.974,10.063,1.248,1.248,0,0,0-.233.686,20.913,20.913,0,0,1-.239,3.052,8.656,8.656,0,0,1-7.927,6.671.974.974,0,0,0-.623.434,9.07,9.07,0,0,1-3.912,3.4,31.894,31.894,0,0,1-3.08.994h-2.175a3.61,3.61,0,0,0-.393-.123,9.191,9.191,0,0,1-5.052-2.626c-.706-.726-1.308-1.553-1.979-2.362-.072.1-.169.221-.249.351a9.3,9.3,0,0,1-4.016,3.722A28.579,28.579,0,0,1,1196.166,401.2Zm-17.2-23.863a7.025,7.025,0,0,0-.33.657,5.85,5.85,0,0,0,1.481,6.635,1.914,1.914,0,0,1,.623,1.822,7.818,7.818,0,0,0,.127,2.8c.8,3.037,3.837,5.106,6.375,4.6a1.132,1.132,0,0,1,1.221.609c.154.259.292.529.453.785a6.955,6.955,0,0,0,6.415,3.493,7.542,7.542,0,0,0,6.817-9.129,7.25,7.25,0,0,0-6.961-5.728c-.83-.055-1.343-.551-1.31-1.269a1.223,1.223,0,0,1,1.362-1.15,8.374,8.374,0,0,1,4.167,1.046c1.014.58,1.941,1.315,2.912,1.985a1.317,1.317,0,0,0,.012-.152q0-11.263-.006-22.524a2.429,2.429,0,0,0-2.345-2.518c-.841-.1-1.321-.6-1.264-1.312a1.2,1.2,0,0,1,1.458-1.088,19.423,19.423,0,0,1,2.159.47c0-2.985,0-6.012,0-9.038a6.913,6.913,0,0,0-1.684-4.605,5.532,5.532,0,0,0-6.432-1.645,6.351,6.351,0,0,0-2.814,2.4c.305.073.521.122.733.178a7.169,7.169,0,0,1,3.207,1.845,1.074,1.074,0,0,1,.268,1.327,1.556,1.556,0,0,1-1,.718,1.863,1.863,0,0,1-1.162-.5,4.988,4.988,0,0,0-4.047-1.127,4.751,4.751,0,0,0-3.911,4.8c.136-.008.274-.014.41-.026,4.937-.457,9.1,3.8,9.175,8.6a1.232,1.232,0,0,1-1.156,1.417c-.714.027-1.206-.484-1.257-1.322a6.655,6.655,0,0,0-1.642-4.13,5.515,5.515,0,0,0-5.073-2.1,6.432,6.432,0,0,0-5.264,5.282,6.124,6.124,0,0,0,.606,3.81,1.311,1.311,0,0,1-.483,1.974c-.112.084-.23.163-.339.253a5.859,5.859,0,0,0-2.227,5.509,6.367,6.367,0,0,0,5.979,5.633,1.2,1.2,0,1,1-.06,2.4,5.245,5.245,0,0,1-1.667-.2C1181.314,378.4,1180.178,377.858,1178.967,377.337Zm49.033-.148c-.176.115-.33.209-.476.312a7.753,7.753,0,0,1-4.492,1.533,1.214,1.214,0,1,1-.106-2.419,6.949,6.949,0,0,0,1.25-.184,6.22,6.22,0,0,0,4.593-5.024,5.794,5.794,0,0,0-2.45-6.139c-.835-.624-.986-1.071-.55-1.954a6.16,6.16,0,0,0-.856-7,5.553,5.553,0,0,0-8.175-.74,6.822,6.822,0,0,0-2.325,4.876,1.211,1.211,0,0,1-1.251,1.263,1.194,1.194,0,0,1-1.15-1.352,8.733,8.733,0,0,1,.253-1.969,8.541,8.541,0,0,1,7.047-6.615,17.332,17.332,0,0,1,2.337-.118,4.66,4.66,0,0,0-2.4-4.133,4.715,4.715,0,0,0-5.746.645,1.225,1.225,0,0,1-1.865-.01,1.285,1.285,0,0,1,.306-1.854,7.47,7.47,0,0,1,3.673-1.815,5.656,5.656,0,0,0-6.1-2.7,6.609,6.609,0,0,0-4.768,6.4c-.016,2.906,0,5.811,0,8.717v.44a22.977,22.977,0,0,1,2.32-.453,1.16,1.16,0,0,1,1.3,1.132,1.217,1.217,0,0,1-1.187,1.265,2.471,2.471,0,0,0-2.432,2.744q-.005,11.017,0,22.033c0,.169.023.336.035.5l.153.092a3.213,3.213,0,0,1,.352-.487,9.516,9.516,0,0,1,6.462-2.716c.883-.024,1.437.441,1.451,1.179.014.715-.5,1.175-1.34,1.243a9.369,9.369,0,0,0-1.375.175,7.287,7.287,0,0,0-5.14,10.02,7.154,7.154,0,0,0,13.1.671c.435-.826.786-.965,1.718-.869a3.955,3.955,0,0,0,1.02-.016,6.39,6.39,0,0,0,5.19-7.314,2,2,0,0,1,.684-2.023A5.811,5.811,0,0,0,1228,377.189Z" fill="#fbcd21"/>
    <path id="Path_23888" data-name="Path 23888" d="M1190.783,365.46a8.555,8.555,0,0,1-4.887-2.748,8.252,8.252,0,0,1-2.126-5.329c-.028-.909.4-1.456,1.13-1.5s1.235.46,1.282,1.357a6.049,6.049,0,0,0,5.6,5.86,5.81,5.81,0,0,0,3.972-1.127,4.61,4.61,0,0,1,.958-.616,1.146,1.146,0,0,1,1.391.566,1.163,1.163,0,0,1-.258,1.484,7.466,7.466,0,0,1-3.591,1.878,1.319,1.319,0,0,0-1.2,1.065,5.979,5.979,0,0,1-5.526,4.051,1.211,1.211,0,1,1-.142-2.415A3.577,3.577,0,0,0,1190.783,365.46Z" transform="translate(1.648 3.423)" fill="#fbcd21"/>
    <path id="Path_23889" data-name="Path 23889" d="M1193.43,386.9a2.078,2.078,0,0,1,0,.212,1.208,1.208,0,0,1-1.176,1.211,1.183,1.183,0,0,1-1.223-1.159,7.054,7.054,0,0,0-.845-3.113,6.081,6.081,0,0,0-5.11-3.341,1.277,1.277,0,0,1-1.2-.752,1,1,0,0,1,.2-1.227,1.762,1.762,0,0,1,1.063-.427,8.225,8.225,0,0,1,6.925,4.064A8.65,8.65,0,0,1,1193.43,386.9Z" transform="translate(1.644 8.024)" fill="#fbcd21"/>
    <path id="Path_23890" data-name="Path 23890" d="M1194.029,370.251c.1,0,.241,0,.382,0a1.21,1.21,0,0,1,1.217,1.173,1.183,1.183,0,0,1-1.153,1.232,9.474,9.474,0,0,0-4,1.014,8.389,8.389,0,0,0-3.056,2.771c-.134.2-.263.407-.413.6a1.2,1.2,0,1,1-1.98-1.367,14.649,14.649,0,0,1,1.6-2.112A10.733,10.733,0,0,1,1194.029,370.251Z" transform="translate(1.861 6.371)" fill="#fbcd21"/>
    <path id="Path_23891" data-name="Path 23891" d="M1194.021,349.953a1.2,1.2,0,1,1,1.177-1.2A1.208,1.208,0,0,1,1194.021,349.953Z" transform="translate(3.5 1.712)" fill="#fbcd21"/>
    <path id="Path_23892" data-name="Path 23892" d="M1209.258,365.478a3.687,3.687,0,0,0,3.43,2.509,1.208,1.208,0,0,1,1.122.777,1.006,1.006,0,0,1-.242,1.222,1.865,1.865,0,0,1-1.079.4,5.963,5.963,0,0,1-5.552-4.253.892.892,0,0,0-.817-.774,7.688,7.688,0,0,1-3.466-1.6c-.869-.674-1.072-1.341-.586-1.984.468-.619,1.2-.619,2.066.045a6.254,6.254,0,0,0,3.142,1.258,6,6,0,0,0,6.246-4.007,11.678,11.678,0,0,0,.371-1.948,1.245,1.245,0,0,1,1.225-1.238,1.218,1.218,0,0,1,1.2,1.316,8.5,8.5,0,0,1-6.392,8.113Z" transform="translate(5.35 3.424)" fill="#fbcd21"/>
    <path id="Path_23893" data-name="Path 23893" d="M1205.838,386.72c.075-4.394,3.975-8.4,8.2-8.43.885-.006,1.437.442,1.452,1.177.016.714-.488,1.181-1.337,1.244a6.472,6.472,0,0,0-5.9,6.13c-.012.161-.007.324-.035.482a1.2,1.2,0,0,1-2.378-.059A4.833,4.833,0,0,1,1205.838,386.72Z" transform="translate(6.175 8.021)" fill="#fbcd21"/>
    <path id="Path_23894" data-name="Path 23894" d="M1205.913,370.27a10.674,10.674,0,0,1,8.511,5.379,1.224,1.224,0,0,1-.312,1.713,1.169,1.169,0,0,1-1.686-.366,10.274,10.274,0,0,0-2.61-2.817,8.1,8.1,0,0,0-4.519-1.476,1.354,1.354,0,0,1-1.47-1.323C1203.881,370.618,1204.443,370.223,1205.913,370.27Z" transform="translate(5.763 6.374)" fill="#fbcd21"/>
    <path id="Path_23895" data-name="Path 23895" d="M1205.226,348.758a1.2,1.2,0,1,1-1.164-1.212A1.207,1.207,0,0,1,1205.226,348.758Z" transform="translate(5.557 1.712)" fill="#fbcd21"/>
  </g>
</svg>
