<svg xmlns="http://www.w3.org/2000/svg" width="43.349" height="43.336" viewBox="0 0 43.349 43.336">
  <g id="Group_5259" data-name="Group 5259" transform="translate(-1273.259 -3336.26)">
    <g id="Group_5244" data-name="Group 5244" transform="translate(-971.88 4179.255)">
      <path id="Path_14109" data-name="Path 14109" d="M2287.72-799.659H2245.9a1.191,1.191,0,0,1-.762-.762v-6.01a1.1,1.1,0,0,1,1.211-.768c.84.019,1.681,0,2.561,0v-.638q0-16.863,0-33.725a5.108,5.108,0,0,1,.031-.633.835.835,0,0,1,.691-.756,2.63,2.63,0,0,1,.587-.048q16.59,0,33.18,0a2.9,2.9,0,0,1,.505.026.884.884,0,0,1,.777.822,4.812,4.812,0,0,1,.025.591q0,16.884,0,33.767v.594c.9,0,1.731,0,2.563,0,.867,0,1.208.339,1.208,1.2,0,1.707-.009,3.414.006,5.12A1.12,1.12,0,0,1,2287.72-799.659Zm-36.891-41.435v33.874H2271.5v-33.874Zm26.341.008h-3.735v33.871h3.735v-.516q0-2.856,0-5.712c0-.833.343-1.289.957-1.281s.938.455.938,1.3q0,2.877,0,5.754c0,.149.012.3.019.45h3.713v-33.876h-3.733v.557q0,10.323,0,20.646a3.256,3.256,0,0,1-.059.67.88.88,0,0,1-.923.7.878.878,0,0,1-.859-.73,3.724,3.724,0,0,1-.05-.672q0-10.3,0-20.6Zm9.413,35.794h-39.538v3.725h39.538Z" transform="translate(0 0)" fill="#eef9ff"/>
      <path id="Path_14110" data-name="Path 14110" d="M2315.593-720.524q-2.687,0-5.373,0c-.907,0-1.238-.338-1.239-1.256q0-2.517,0-5.034c0-.9.351-1.248,1.258-1.248q5.352,0,10.7,0c.888,0,1.229.343,1.23,1.224q0,2.559,0,5.118c0,.871-.325,1.194-1.207,1.2Q2318.279-720.519,2315.593-720.524Zm-4.684-5.62v3.707h9.366v-3.707Z" transform="translate(-54.425 -97.981)" fill="#eef9ff"/>
      <path id="Path_14111" data-name="Path 14111" d="M2315.558-804.626q2.708,0,5.415,0c.871,0,1.194.328,1.2,1.205q0,2.559,0,5.118c0,.861-.344,1.21-1.2,1.21q-5.394,0-10.788,0c-.845,0-1.2-.362-1.2-1.215q-.006-2.559,0-5.118c0-.858.348-1.2,1.208-1.2Q2312.871-804.629,2315.558-804.626Zm-4.664,5.61h9.373v-3.708h-9.373Z" transform="translate(-54.421 -32.71)" fill="#eef9ff"/>
      <path id="Path_14112" data-name="Path 14112" d="M2315.785-649.447q-2.748,0-5.5,0c-.636,0-.992-.263-1.084-.777a.9.9,0,0,1,.6-1.031,1.052,1.052,0,0,1,.33-.062q5.624,0,11.247,0a.921.921,0,0,1,.966.96.937.937,0,0,1-1.021.906C2319.478-649.442,2317.631-649.448,2315.785-649.447Z" transform="translate(-54.604 -163.406)" fill="#eef9ff"/>
    </g>
  </g>
</svg>
