<svg xmlns="http://www.w3.org/2000/svg" width="41.798" height="40.824" viewBox="0 0 41.798 40.824">
  <g id="Group_5099" data-name="Group 5099" transform="translate(0 0)">
    <path id="Path_14007" data-name="Path 14007" d="M4866.205,743.837a2.807,2.807,0,0,1-2.454-2.17,3.587,3.587,0,0,1-.069-.867q-.009-3.621,0-7.242a2.793,2.793,0,0,1,2.362-3.127.68.68,0,0,0,.107-.049,16.3,16.3,0,0,0-32.531.011c.112.031.229.067.348.1a2.685,2.685,0,0,1,2.114,2.562c.027,2.7.038,5.411,0,8.115a2.784,2.784,0,0,1-3.447,2.622,4.3,4.3,0,0,1-3.617-4.166c-.033-1.678-.043-3.358,0-5.035a4.147,4.147,0,0,1,2.237-3.653.57.57,0,0,0,.341-.537,18.316,18.316,0,0,1,36.273-2.462c.156.815.229,1.647.31,2.473a.558.558,0,0,0,.315.512,4.2,4.2,0,0,1,2.271,3.8c.027,1.581.021,3.163,0,4.744a4.215,4.215,0,0,1-2.271,3.845.514.514,0,0,0-.289.525,22.417,22.417,0,0,1-.093,2.947,5.994,5.994,0,0,1-5.859,5.09c-.928.02-1.858.011-2.788,0a.411.411,0,0,0-.44.268,2.953,2.953,0,0,1-2.8,1.749c-1,.007-2,.01-3,0a3,3,0,0,1-3.046-2.94,2.965,2.965,0,0,1,2.852-3.076c1.134-.058,2.274-.045,3.41,0a2.889,2.889,0,0,1,2.592,1.733c.057.113.2.265.3.265a33.649,33.649,0,0,0,3.448-.071,3.952,3.952,0,0,0,3.417-3.774C4866.224,745.3,4866.205,744.584,4866.205,743.837Zm2.566-6.7c0-.818.015-1.637,0-2.455a2.3,2.3,0,0,0-2.233-2.285.754.754,0,0,0-.852.8q-.014,3.911,0,7.822a.755.755,0,0,0,.847.808,2.3,2.3,0,0,0,2.238-2.28C4868.787,738.75,4868.771,737.945,4868.771,737.141Zm-34.676-.007c0-1.29.006-2.58,0-3.869a.779.779,0,0,0-.92-.862,2.277,2.277,0,0,0-2.163,2.222q-.044,2.5,0,4.992a2.278,2.278,0,0,0,2.046,2.206c.722.06,1.035-.22,1.038-.945C4834.1,739.63,4834.1,738.382,4834.1,737.134Zm20.634,14.76c.513,0,1.026.009,1.539,0a1,1,0,0,0,1.045-1.006.983.983,0,0,0-1.022-1.024q-1.54-.026-3.079,0a.988.988,0,0,0-1.028,1.022,1,1,0,0,0,1.047,1.008C4853.731,751.9,4854.231,751.894,4854.73,751.894Z" transform="translate(-4828.984 -713.074)" fill="#fbcd21"/>
    <path id="Path_14008" data-name="Path 14008" d="M4925.01,817.553a4.383,4.383,0,0,1-2.485-.776,4.228,4.228,0,0,1-1.823-3.639c0-2.761-.011-5.521,0-8.282a4.228,4.228,0,0,1,4.443-4.405q6.262-.007,12.524,0a4.226,4.226,0,0,1,4.432,4.416q.019,4.12,0,8.24a4.248,4.248,0,0,1-4.459,4.438c-1.651,0-3.3.007-4.952-.005a.918.918,0,0,0-.729.294c-1.141,1.154-2.285,2.306-3.454,3.431a2.031,2.031,0,0,1-3.3-.636,3.041,3.041,0,0,1-.2-1.051C4924.989,818.918,4925.01,818.254,4925.01,817.553Zm2,2.227.1.055c.108-.1.219-.2.323-.3,1.171-1.163,2.35-2.318,3.505-3.5a1.556,1.556,0,0,1,1.217-.5c1.816.019,3.633.009,5.449.007a2.276,2.276,0,0,0,2.507-2.5q.006-4.056,0-8.112a2.264,2.264,0,0,0-2.509-2.489h-12.354a2.273,2.273,0,0,0-2.546,2.535q0,4.015,0,8.029a4.973,4.973,0,0,0,.025.54,2.165,2.165,0,0,0,1.823,1.94,8.29,8.29,0,0,0,1.2.055c.924.01,1.254.331,1.256,1.248Q4927.01,818.289,4927.008,819.78Z" transform="translate(-4910.503 -790.735)" fill="#fbcd21"/>
    <path id="Path_14009" data-name="Path 14009" d="M5005.19,868.436a1.477,1.477,0,1,1,1.477-1.488A1.5,1.5,0,0,1,5005.19,868.436Z" transform="translate(-4984.288 -848.54)" fill="#fbcd21"/>
    <path id="Path_14010" data-name="Path 14010" d="M4963.054,866.959a1.469,1.469,0,1,1-1.476-1.477A1.476,1.476,0,0,1,4963.054,866.959Z" transform="translate(-4945.539 -848.539)" fill="#fbcd21"/>
    <path id="Path_14011" data-name="Path 14011" d="M5047.462,866.951a1.469,1.469,0,1,1,2.938.034,1.491,1.491,0,0,1-1.469,1.449A1.476,1.476,0,0,1,5047.462,866.951Z" transform="translate(-5023.173 -848.538)" fill="#fbcd21"/>
  </g>
</svg>
