<svg xmlns="http://www.w3.org/2000/svg" width="45.793" height="35.421" viewBox="0 0 45.793 35.421">
  <g id="Group_5202" data-name="Group 5202" transform="translate(0 -6.973)">
    <g id="Group_5101" data-name="Group 5101" transform="translate(0 6.972)">
      <path id="Path_14015" data-name="Path 14015" d="M3887.138,899.194a11.168,11.168,0,0,1-.831,1.99,3.614,3.614,0,0,1-2.978,1.644,25.7,25.7,0,0,1-3.48-.052,3.939,3.939,0,0,1-3.425-3.58c-.054-.782-.009-1.571-.009-2.381h-24.308c0,.622.008,1.228,0,1.835a3.987,3.987,0,0,1-2.311,3.779,3.2,3.2,0,0,1-1.229.359,24.867,24.867,0,0,1-3.524.017,3.966,3.966,0,0,1-3.68-4.059q-.039-6.908,0-13.817a4.99,4.99,0,0,1,1.775-3.956,7.842,7.842,0,0,0,2.469-3.754c.768-2.314,1.676-4.582,2.527-6.869a4.117,4.117,0,0,1,4.2-2.908q12.228,0,24.456,0a4.136,4.136,0,0,1,4.192,2.917c1.068,2.873,2.126,5.749,3.212,8.615a3.417,3.417,0,0,0,.652,1.036,8.154,8.154,0,0,1,1.769,2.336c.21.534.354,1.094.527,1.642Zm-22.89-4.362h14.35c1.5,0,3.01.017,4.515-.012a2.055,2.055,0,0,0,2.057-2.135c0-2.623.008-5.246-.006-7.869a5.459,5.459,0,0,0-.16-1.144,5.648,5.648,0,0,0-1.624-2.36,1,1,0,0,0-.842-.372q-18.037.015-36.075.008a1,1,0,0,0-.267,0,.985.985,0,0,0-.388.165c-.452.41-.889.837-1.331,1.259a3.8,3.8,0,0,0-1.166,2.893c.006,2.414,0,4.828,0,7.243a3,3,0,0,0,.065.708,2.116,2.116,0,0,0,2.314,1.61Q3854.973,894.833,3864.248,894.832Zm-17.23-15.875h19.527a6.777,6.777,0,0,1,6.4-5.691,6.506,6.506,0,0,1,4.19,1.278,6.686,6.686,0,0,1,2.7,4.421h2.246c-.045-.146-.078-.271-.123-.392q-1.413-3.806-2.831-7.61a2.122,2.122,0,0,0-2.235-1.557q-12.334,0-24.668,0a2.117,2.117,0,0,0-2.231,1.562c-.482,1.281-.955,2.564-1.432,3.847Zm3.092,17.833c-.6,0-1.163.025-1.725,0-1.688-.091-3.423.323-5.058-.512,0,.936-.038,1.83.01,2.719a2.033,2.033,0,0,0,1.928,1.89c.981.037,1.965.036,2.946,0a1.988,1.988,0,0,0,1.882-1.678A23.466,23.466,0,0,0,3850.11,896.79Zm28.253,0c0,.789-.04,1.5.009,2.213a2.032,2.032,0,0,0,1.975,1.884c.936.029,1.875.027,2.812,0a2.018,2.018,0,0,0,1.978-1.785c.077-.925.016-1.862.016-2.79a5.852,5.852,0,0,1-1.194.367c-.9.08-1.808.091-2.714.106C3880.3,896.8,3879.348,896.79,3878.363,896.79Zm-.566-17.823a4.711,4.711,0,0,0-9.224,0Z" transform="translate(-3841.344 -867.442)" fill="#fbcd21"/>
      <path id="Path_14016" data-name="Path 14016" d="M3900.107,1072.616c1.132,0,2.264,0,3.4,0,.887,0,1.229.334,1.233,1.2q.007,2.323,0,4.646c0,.814-.354,1.181-1.165,1.184q-3.485.014-6.969,0a1.021,1.021,0,0,1-1.153-1.162c-.013-1.579-.015-3.157,0-4.736.007-.777.389-1.13,1.175-1.134C3897.785,1072.611,3898.946,1072.616,3900.107,1072.616Zm-2.688,5.046h5.332v-3.053h-5.332Z" transform="translate(-3890.844 -1055.191)" fill="#fbcd21"/>
      <path id="Path_14017" data-name="Path 14017" d="M4221.7,1072.62c1.146,0,2.293,0,3.439,0,.841,0,1.216.354,1.222,1.179q.017,2.345,0,4.691a1.021,1.021,0,0,1-1.152,1.162q-3.483.017-6.969,0c-.812,0-1.162-.37-1.166-1.183q-.01-2.323,0-4.647c0-.87.345-1.2,1.231-1.2C4219.441,1072.618,4220.572,1072.62,4221.7,1072.62Zm-2.649,5.052h5.329v-3.067h-5.329Z" transform="translate(-4185.166 -1055.196)" fill="#fbcd21"/>
      <path id="Path_14018" data-name="Path 14018" d="M4049.656,1087.26c-1.459,0-2.918,0-4.377,0a2.372,2.372,0,0,1-.7-.092.96.96,0,0,1,.13-1.82,1.144,1.144,0,0,1,.31-.037q4.645,0,9.289,0a.945.945,0,0,1,1.009.708.93.93,0,0,1-.707,1.186,2.794,2.794,0,0,1-.575.055C4052.573,1087.262,4051.114,1087.26,4049.656,1087.26Z" transform="translate(-4026.768 -1066.804)" fill="#fbcd21"/>
      <path id="Path_14019" data-name="Path 14019" d="M4049.692,1120.906c1.519,0,3.037-.008,4.556,0,.8.006,1.309.6,1.03,1.262a1.664,1.664,0,0,1-.679.625,1.152,1.152,0,0,1-.568.063q-4.355,0-8.71,0c-.884,0-1.4-.366-1.351-1,.034-.488.3-.988,1.345-.963C4046.773,1120.932,4048.233,1120.906,4049.692,1120.906Z" transform="translate(-4026.761 -1099.373)" fill="#fbcd21"/>
    </g>
  </g>
</svg>
