<svg xmlns="http://www.w3.org/2000/svg" width="67.249" height="67.279" viewBox="0 0 67.249 67.279">
  <g id="Group_7192" data-name="Group 7192" transform="translate(-938.698 -152.531)">
    <path id="Path_23884" data-name="Path 23884" d="M971.4,219.81c-2.513-.523-4.092-2.442-5.856-4.032a4.071,4.071,0,0,0-3.708-1.287,47.738,47.738,0,0,1-5.816.453,5.828,5.828,0,0,1-6.138-4.639c-.457-1.865-.909-3.731-1.332-5.6a1.489,1.489,0,0,0-.775-1.039c-2-1.165-3.991-2.354-5.975-3.549a5.892,5.892,0,0,1-2.552-7.741c.762-1.858,1.523-3.716,2.312-5.563a1.518,1.518,0,0,0,.006-1.3q-1.221-2.862-2.379-5.749a5.857,5.857,0,0,1,2.547-7.526c1.859-1.108,3.728-2.2,5.57-3.332a1.65,1.65,0,0,0,.645-.824c.7-2.134,1.373-4.28,2.035-6.428a5.928,5.928,0,0,1,6.463-4.284c2.372.234,4.752.392,7.129.552a1.169,1.169,0,0,0,.738-.3c1.344-1.154,2.666-2.337,4-3.5a5.854,5.854,0,0,1,7.994-.015c1.353,1.179,2.686,2.38,4.049,3.547a1.15,1.15,0,0,0,.746.268c2.443-.172,4.886-.35,7.324-.58a5.967,5.967,0,0,1,6.329,4.672c.453,1.844.9,3.689,1.321,5.541a1.478,1.478,0,0,0,.753,1.053c2,1.165,3.976,2.378,5.972,3.553a5.978,5.978,0,0,1,3.041,4.142c.011.059.068.108.1.163V178.3c-.214.612-.4,1.235-.646,1.836-.749,1.856-1.528,3.7-2.267,5.562a1.274,1.274,0,0,0-.024.852c.961,2.467,1.954,4.923,2.937,7.381v1.97c-.038.05-.1.1-.111.151a6,6,0,0,1-3.066,4.119c-2.014,1.183-4,2.41-6.021,3.587a1.278,1.278,0,0,0-.647.9q-.657,2.8-1.335,5.6a5.82,5.82,0,0,1-6.1,4.684,47.214,47.214,0,0,1-5.812-.445,4.187,4.187,0,0,0-3.817,1.328c-1.735,1.585-3.308,3.475-5.8,3.985Zm-14.681-58.451c-2.056-.094-2.593.288-3.052,1.763-.721,2.313-1.464,4.619-2.16,6.94a2.981,2.981,0,0,1-1.449,1.842c-2.064,1.187-4.1,2.423-6.151,3.638a2.026,2.026,0,0,0-.979,2.926c.88,2.141,1.74,4.291,2.662,6.413a2.961,2.961,0,0,1,.012,2.519c-.917,2.125-1.783,4.272-2.664,6.412a2.033,2.033,0,0,0,1,2.971c2.309,1.376,4.615,2.758,6.931,4.122a2.5,2.5,0,0,1,1.234,1.683c.493,2.127,1.029,4.243,1.54,6.365.42,1.742,1.112,2.185,2.913,2.015,2.547-.239,5.1-.4,7.652-.611a2.43,2.43,0,0,1,1.908.687c1.531,1.373,3.082,2.725,4.634,4.076a2.027,2.027,0,0,0,3.129.01c1.5-1.311,3.017-2.6,4.48-3.953a2.9,2.9,0,0,1,2.384-.812c2.527.229,5.057.412,7.585.627a2.133,2.133,0,0,0,2.641-1.9c.515-2.143,1.059-4.28,1.543-6.43a2.607,2.607,0,0,1,1.316-1.773c2.259-1.334,4.5-2.689,6.755-4.037,1.456-.873,1.7-1.6,1.061-3.154-.9-2.181-1.78-4.366-2.693-6.541a2.465,2.465,0,0,1,0-2.024c.912-2.174,1.8-4.358,2.7-6.54.629-1.531.392-2.265-1.023-3.117q-3.428-2.064-6.867-4.106a2.48,2.48,0,0,1-1.234-1.678c-.526-2.275-1.088-4.542-1.659-6.806a1.841,1.841,0,0,0-2.095-1.564c-2.75.185-5.5.388-8.243.625a2.531,2.531,0,0,1-2.047-.642c-1.5-1.344-3.015-2.67-4.523-4-1.2-1.065-2.062-1.071-3.277,0q-2.319,2.037-4.627,4.085a2.294,2.294,0,0,1-1.812.578C961.567,161.735,958.884,161.53,956.724,161.359Z" transform="translate(0 0)" fill="#fbcd21"/>
    <path id="Path_23885" data-name="Path 23885" d="M953.6,189.142A21.667,21.667,0,1,1,975.262,210.8,21.67,21.67,0,0,1,953.6,189.142ZM975.228,171.4a17.729,17.729,0,1,0,17.761,17.728A17.793,17.793,0,0,0,975.228,171.4Z" transform="translate(-2.94 -2.946)" fill="#fbcd21"/>
    <path id="Path_23886" data-name="Path 23886" d="M975.719,195.588c.195-.184.371-.341.537-.507q4.872-4.871,9.745-9.742a1.975,1.975,0,0,1,3.433.762,2.028,2.028,0,0,1-.661,2.073q-2.744,2.732-5.475,5.474-2.97,2.97-5.94,5.939a2.046,2.046,0,0,1-3.3-.01q-3.76-3.756-7.514-7.52a1.971,1.971,0,0,1,.747-3.4,2,2,0,0,1,2.08.624q2.941,2.951,5.894,5.892C975.4,195.307,975.549,195.432,975.719,195.588Z" transform="translate(-5.361 -6.336)" fill="#fbcd21"/>
  </g>
</svg>
