<svg id="chat-quote-svgrepo-com" xmlns="http://www.w3.org/2000/svg" width="33.899" height="33.899" viewBox="0 0 33.899 33.899">
  <path id="Path_6538" data-name="Path 6538" d="M0,0H33.9V33.9H0Z" fill="none"/>
  <path id="Path_6539" data-name="Path 6539" d="M28.837,3a1.413,1.413,0,0,1,1.412,1.412V24.187A1.413,1.413,0,0,1,28.837,25.6H8.292L2,30.543V4.412A1.413,1.413,0,0,1,3.412,3ZM27.424,5.825H4.825V24.731l2.49-1.956H27.424Zm-13.4,3.407.631.972a4.054,4.054,0,0,0-2.315,3.763,3.1,3.1,0,0,1,.678-.013,2.472,2.472,0,0,1-.194,4.937,2.729,2.729,0,0,1-1.941-.833,4.035,4.035,0,0,1-1.119-3.044,6.558,6.558,0,0,1,4.259-5.781Zm7.062,0,.631.972a4.054,4.054,0,0,0-2.315,3.763,3.1,3.1,0,0,1,.678-.013,2.472,2.472,0,0,1-.194,4.937,2.729,2.729,0,0,1-1.941-.833,4.035,4.035,0,0,1-1.119-3.044,6.558,6.558,0,0,1,4.259-5.781Z" transform="translate(0.825 1.237)" fill="#fbcd21"/>
</svg>
