<svg xmlns="http://www.w3.org/2000/svg" width="60" height="56.417" viewBox="0 0 60 56.417">
  <g id="Group_7371" data-name="Group 7371" transform="translate(-1621.917 -479.551)">
    <path id="Path_23999" data-name="Path 23999" d="M1621.917,527.533V486.986a2.147,2.147,0,0,1,2.285-1.321c3.065.05,6.131.022,9.2.01a3.223,3.223,0,0,0,1.025-.171q8.227-2.863,16.443-5.76a3.047,3.047,0,0,1,2.1-.013q8.7,2.93,17.417,5.816a2.777,2.777,0,0,0,.857.13c2.87.01,5.741,0,8.611.006,1.416,0,2.064.654,2.064,2.083q0,19.507,0,39.012c0,1.478-.659,2.131-2.151,2.132H1664.3v3.541h.676c1.542,0,3.085-.013,4.627.008a1.739,1.739,0,0,1,1.717,1.6,1.769,1.769,0,0,1-1.433,1.867,3.29,3.29,0,0,1-.641.035h-34.678c-.117,0-.235,0-.351,0a1.789,1.789,0,0,1-1.709-1.749,1.754,1.754,0,0,1,1.75-1.757c1.542-.019,3.085-.006,4.627-.007h.654V528.91h-.731c-4.882,0-9.763-.015-14.645.011A2.085,2.085,0,0,1,1621.917,527.533Zm3.532-2.185h52.915V489.233H1672.2v.662q0,4.891,0,9.784a1.757,1.757,0,0,1-1.407,1.83,1.776,1.776,0,0,1-2.1-1.85c-.011-3.027,0-6.054,0-9.08v-.7c-1.05.345-2.021.686-3.005.979a.633.633,0,0,0-.539.732c.026,2.089.011,4.178.012,6.268a1.781,1.781,0,0,1-1.2,1.822c-3.728,1.437-7.462,2.862-11.187,4.309a2.3,2.3,0,0,1-1.755-.022q-5.562-2.152-11.132-4.288a1.777,1.777,0,0,1-1.2-1.822c0-2.168-.012-4.335.011-6.5a.618.618,0,0,0-.5-.706c-1.277-.422-2.54-.884-3.815-1.314a2.569,2.569,0,0,0-.8-.131c-2.539-.01-5.076-.006-7.615,0-.168,0-.334.024-.513.038Zm39.268-37.86-.018-.124q-6.238-2.077-12.482-4.142a1.22,1.22,0,0,0-.719.049c-1.733.593-3.457,1.209-5.185,1.814-2.183.764-4.369,1.524-6.643,2.316.2.095.319.159.442.2,3.822,1.342,7.644,2.688,11.474,4.01a1.4,1.4,0,0,0,.836-.038c3.276-1.076,6.547-2.171,9.819-3.262Zm-3.081,4.743c-.259.084-.459.148-.657.214-2.7.9-5.4,1.786-8.1,2.7a2.8,2.8,0,0,1-1.934-.011c-2.66-.951-5.331-1.873-8-2.8-.23-.08-.464-.149-.754-.242,0,1.478.015,2.862-.011,4.246a.6.6,0,0,0,.478.66c2.968,1.126,5.929,2.275,8.9,3.4a.946.946,0,0,0,.608.045q4.591-1.739,9.165-3.521a.514.514,0,0,0,.289-.357C1661.643,495.146,1661.636,493.725,1661.636,492.231Zm-.926,36.717h-17.577v3.458h17.577Z" fill="#535353"/>
    <path id="Path_24000" data-name="Path 24000" d="M1662.068,516.95q-7.152,0-14.3,0a1.792,1.792,0,0,1-1.907-2.068,1.819,1.819,0,0,1,1.687-1.518c.178-.014.359-.005.539-.005h27.948c.14,0,.279,0,.418,0a1.837,1.837,0,0,1,1.849,1.81,1.8,1.8,0,0,1-1.868,1.778Q1669.248,516.957,1662.068,516.95Z" transform="translate(-3.594 -3.905)" fill="#535353"/>
    <path id="Path_24001" data-name="Path 24001" d="M1662.035,524.921q-7.067,0-14.134,0a1.811,1.811,0,0,1-2.057-1.759,1.774,1.774,0,0,1,1.577-1.806,5.1,5.1,0,0,1,.716-.024h27.85c.12,0,.239,0,.359,0a1.843,1.843,0,0,1,1.953,1.829,1.806,1.806,0,0,1-1.95,1.759Q1669.192,524.931,1662.035,524.921Z" transform="translate(-3.595 -4.826)" fill="#535353"/>
    <path id="Path_24002" data-name="Path 24002" d="M1635.322,513.356c1.138,0,2.276-.006,3.414,0a1.8,1.8,0,0,1,1.956,1.935q.027,3.474,0,6.948a1.778,1.778,0,0,1-1.959,1.923q-3.445.019-6.888,0a1.81,1.81,0,0,1-1.966-1.987q-.012-3.413,0-6.827a1.839,1.839,0,0,1,2.029-1.993C1633.047,513.352,1634.184,513.356,1635.322,513.356Zm1.74,3.63h-3.553v3.549h3.553Z" transform="translate(-0.752 -4.014)" fill="#535353"/>
  </g>
</svg>
