<svg xmlns="http://www.w3.org/2000/svg" width="32.463" height="36.753" viewBox="0 0 32.463 36.753">
  <g id="Group_7290" data-name="Group 7290" transform="translate(522.544 -331.56)">
    <path id="Path_23944" data-name="Path 23944" d="M-522.544,331.56h32.463v23.762h-32.459v-.495Q-522.542,343.194-522.544,331.56Zm2.2,2.183v19.42h5.337v-2.142h-2.108v-8.657c.707,0,1.387-.013,2.067.007a.427.427,0,0,0,.5-.353c.626-1.929,1.285-3.849,1.91-5.778a.455.455,0,0,1,.53-.369q5.8.014,11.6,0a.456.456,0,0,1,.519.384c.629,1.929,1.286,3.849,1.912,5.779a.407.407,0,0,0,.478.338c.574-.016,1.149-.007,1.723,0,.125,0,.25.016.369.024v8.653h-2.115v2.111h5.342v-19.41Zm5.427,10.822v4.279H-497.7v-4.265h-2.122v2.108H-502v-2.111h-8.644v2.112h-2.163v-2.124Zm14.627-2.216a.813.813,0,0,0-.015-.143c-.433-1.3-.874-2.6-1.3-3.909-.074-.229-.209-.245-.4-.245q-4.308.005-8.617,0a.379.379,0,0,0-.427.316c-.4,1.225-.811,2.447-1.217,3.67-.032.1-.048.2-.076.315Zm-3.893,10.821v-2.124h-4.264v2.124Zm-6.473-2.12h-2.1v2.111h2.1Zm8.689,2.112h2.1v-2.112h-2.1Z" fill="#323232"/>
    <path id="Path_23945" data-name="Path 23945" d="M-520.28,396.348c0-.886-.059-1.74.014-2.582a4.316,4.316,0,0,1,1.666-3.024c-.952-1.8-.737-3.39.6-4.477a3.251,3.251,0,0,1,4.131.056,3.286,3.286,0,0,1,.517,4.436c.059.048.125.1.188.152a4.047,4.047,0,0,1,1.483,2.812c.062.865.012,1.738.012,2.627Zm6.453-2.159a2,2,0,0,0-.963-1.779,2.033,2.033,0,0,0-2.324-.017,2.034,2.034,0,0,0-.994,1.8Zm-2.121-6.454a1.058,1.058,0,0,0-1.084,1.048,1.063,1.063,0,0,0,1.052,1.084,1.055,1.055,0,0,0,1.079-1.052A1.046,1.046,0,0,0-515.948,387.735Z" transform="translate(-1.164 -28.037)" fill="#323232"/>
    <path id="Path_23946" data-name="Path 23946" d="M-475.4,396.336c.047-1.011.025-2.019.158-3.005a4,4,0,0,1,1.6-2.581,3.279,3.279,0,0,1,.574-4.476,3.243,3.243,0,0,1,4.185.079,3.278,3.278,0,0,1,.453,4.42,1.6,1.6,0,0,1,.219.141,4.3,4.3,0,0,1,1.523,3.349c0,.682,0,1.363,0,2.073Zm6.53-2.149a2.074,2.074,0,0,0-1.156-1.891,2.032,2.032,0,0,0-2.264.176,1.942,1.942,0,0,0-.852,1.714Zm-2.163-6.455a1.045,1.045,0,0,0-1.047,1.08,1.057,1.057,0,0,0,1.08,1.052,1.061,1.061,0,0,0,1.051-1.084A1.057,1.057,0,0,0-471.033,387.732Z" transform="translate(-24.481 -28.034)" fill="#323232"/>
    <path id="Path_23947" data-name="Path 23947" d="M-489.187,396.347h-8.694c.053-1.066.026-2.123.181-3.153a3.873,3.873,0,0,1,1.57-2.441,3.3,3.3,0,0,1,.576-4.479,3.248,3.248,0,0,1,4.187.076,3.287,3.287,0,0,1,.488,4.38c.062.059.126.123.193.184a4.215,4.215,0,0,1,1.495,3.106C-489.17,394.783-489.187,395.549-489.187,396.347Zm-2.161-2.161a2.11,2.11,0,0,0-1.075-1.839,2.047,2.047,0,0,0-2.265.063,2.08,2.08,0,0,0-.97,1.776Zm-2.157-6.453a1.071,1.071,0,0,0-1.079,1.062,1.084,1.084,0,0,0,1.078,1.068,1.083,1.083,0,0,0,1.079-1.067A1.069,1.069,0,0,0-493.505,387.732Z" transform="translate(-12.807 -28.034)" fill="#323232"/>
  </g>
</svg>
