<svg xmlns="http://www.w3.org/2000/svg" width="22.747" height="32.315" viewBox="0 0 22.747 32.315">
  <g id="Group_7174" data-name="Group 7174" transform="translate(-165.773 -239.696)">
    <path id="Path_23872" data-name="Path 23872" d="M166.478,272.012a1.144,1.144,0,0,1-.7-1.206c.03-1.146.008-2.293.009-3.439a.943.943,0,0,1,1.037-1.033c.588,0,1.175,0,1.8,0,0-.163,0-.306,0-.449a14.721,14.721,0,0,1,.187-3.36,8.449,8.449,0,0,1,6.495-6.537c.131-.034.263-.058.471-.1a8.463,8.463,0,0,1-3.658-1.547,8.374,8.374,0,0,1-3.494-6.838c-.012-.693,0-1.386,0-2.122-.57,0-1.126-.031-1.677.008a1.039,1.039,0,0,1-1.175-1.169c.04-1.156.01-2.314.011-3.471a.946.946,0,0,1,1.056-1.046h20.61a.947.947,0,0,1,1.057,1.046q0,1.8,0,3.6a.945.945,0,0,1-1.037,1.034l-1.7.005a.543.543,0,0,0-.1.028c0,.131,0,.274,0,.417a15.08,15.08,0,0,1-.188,3.423,8.454,8.454,0,0,1-6.464,6.532c-.14.037-.283.061-.507.109a8.561,8.561,0,0,1,7.157,8.354c.014.682,0,1.365,0,2.091.571,0,1.126.031,1.677-.007a1.037,1.037,0,0,1,1.175,1.167c-.041,1.093-.032,2.189,0,3.282a1.153,1.153,0,0,1-.7,1.238ZM183.769,245.4H170.524c0,.79-.057,1.561.017,2.321a19.357,19.357,0,0,0,.425,2.119c.055.261.2.346.487.344,3.671-.012,7.341-.008,11.012-.008.774,0,.764,0,1.008-.755A13.593,13.593,0,0,0,183.769,245.4Zm-6.611,17.195a2.951,2.951,0,0,1-2.135.708h-4.456v3.015h13.156V263.3h-.394c-1.3,0-2.607-.02-3.91.007A3.153,3.153,0,0,1,177.157,262.592Zm-9.467-19.131h18.9V241.6h-18.9Zm0,26.636h18.9V268.24h-18.9Zm3.526-8.689c1.315,0,2.6,0,3.877,0a.983.983,0,0,0,1.106-1.017.934.934,0,0,1,.94-.875.943.943,0,0,1,.949.87.989.989,0,0,0,1.132,1.023h3.848a6.486,6.486,0,0,0-5.856-3.718A6.555,6.555,0,0,0,171.217,261.409Zm1.227-9.334a6.5,6.5,0,0,0,9.375,0Z" fill="#030519"/>
  </g>
</svg>
