<svg xmlns="http://www.w3.org/2000/svg" width="33.933" height="34.064" viewBox="0 0 33.933 34.064">
  <g id="Group_7182" data-name="Group 7182" transform="translate(-742.717 -205.155)">
    <path id="Path_23881" data-name="Path 23881" d="M757.862,205.155c.361.083.727.15,1.083.252a7.264,7.264,0,0,1,5.465,5.774,7.524,7.524,0,1,1-9.107-5.821c.318-.077.642-.137.963-.2Zm-.811,2.513a5.018,5.018,0,1,0,5.006,5.023A5.029,5.029,0,0,0,757.052,207.668Z" transform="translate(-2.3)" fill="#030519"/>
    <path id="Path_23882" data-name="Path 23882" d="M754.756,229.783h3.192a8.643,8.643,0,0,1,6.434,2.742c.153.158.256.206.471.091a7.953,7.953,0,1,1,5.658,14.709,7.691,7.691,0,0,1-5.9-.923.992.992,0,0,0-.888-.159,1.812,1.812,0,0,1-.561.036q-8.513,0-17.025-.009a3.558,3.558,0,0,1-3.336-2.864,4.874,4.874,0,0,1-.067-.791c-.007-1.33-.026-2.661,0-3.99a8.589,8.589,0,0,1,5.254-8.117,7.734,7.734,0,0,1,3.279-.721C752.428,229.776,753.592,229.783,754.756,229.783Zm7.887,4.569a6.045,6.045,0,0,0-4.284-2.045c-2.271-.019-4.542-.01-6.814-.019a5.9,5.9,0,0,0-2.364.431,5.988,5.988,0,0,0-3.9,5.18,46.348,46.348,0,0,0-.022,4.916,1.126,1.126,0,0,0,.271.619,1.232,1.232,0,0,0,1.062.351q7.463,0,14.925,0h.364A8.136,8.136,0,0,1,762.643,234.352Zm6.046,10.673a5.448,5.448,0,1,0-5.457-5.4A5.423,5.423,0,0,0,768.69,245.025Z" transform="translate(0 -8.331)" fill="#030519"/>
    <path id="Path_23883" data-name="Path 23883" d="M778.695,243.822c-.525,0-.989.009-1.453,0a1.254,1.254,0,0,1-1.221-1.2,1.239,1.239,0,0,1,1.122-1.258c.494-.038.994-.008,1.531-.008.008-.16.017-.277.02-.393.012-.409,0-.821.038-1.227a1.237,1.237,0,0,1,1.261-1.084,1.254,1.254,0,0,1,1.2,1.227c.01.463,0,.927,0,1.452.2,0,.367,0,.538,0,.376.01.756,0,1.128.041a1.237,1.237,0,0,1-.124,2.449c-.5.017-.993,0-1.539,0,0,.494.007.955,0,1.416a1.223,1.223,0,0,1-1.445,1.249,1.182,1.182,0,0,1-1.012-1c-.043-.373-.032-.751-.042-1.127C778.692,244.2,778.695,244.032,778.695,243.822Z" transform="translate(-11.267 -11.33)" fill="#030519"/>
  </g>
</svg>
