<svg xmlns="http://www.w3.org/2000/svg" width="15.334" height="11.797" viewBox="0 0 15.334 11.797">
  <g id="Group_7255" data-name="Group 7255" transform="translate(-2311.868 -454.343)">
    <path id="Path_23934" data-name="Path 23934" d="M2326.221,463.659c-.134.079-.239.139-.343.2-1.922,1.17-3.848,2.333-5.761,3.517a1,1,0,0,1-1.186,0c-1.927-1.194-3.866-2.369-5.8-3.55-.087-.053-.176-.1-.289-.165-.005.1-.012.165-.012.232,0,1.605,0,3.211,0,4.817a1.959,1.959,0,0,0,2.015,2.022q4.685.01,9.372,0a1.962,1.962,0,0,0,2.023-2.041q0-2.4,0-4.791c0-.071-.012-.143-.019-.239m.833-1.607.124,1.53c0,.026,0,.05.007.072a2.277,2.277,0,0,1,.016.245v.892c0,1.278,0,2.6,0,3.9a3.018,3.018,0,0,1-.847,2.137,2.975,2.975,0,0,1-2.134.862c-1.592,0-3.187,0-4.741,0s-3.115,0-4.635,0a2.92,2.92,0,0,1-2.973-2.979c0-1.222,0-2.465,0-3.666v-1.153c0-.076,0-.142.009-.207,0-.023,0-.049,0-.077l.085-1.548,1.348.766.094.053c.075.042.145.081.219.127l1.446.882c1.431.872,2.911,1.774,4.362,2.672a.564.564,0,0,0,.09.047.53.53,0,0,0,.085-.045c1.427-.883,2.885-1.769,4.293-2.625l1.474-.9c.069-.042.14-.083.218-.129l.135-.079Z" transform="translate(0 -5.554)" fill="#535353"/>
    <path id="Path_23935" data-name="Path 23935" d="M2316.953,455.3q-.951,0-1.9,0a1.963,1.963,0,0,0-1.883,1.289.269.269,0,0,0,.137.393q3.124,1.889,6.236,3.8a.325.325,0,0,0,.4.008q3.121-1.918,6.253-3.819a.247.247,0,0,0,.123-.355,1.961,1.961,0,0,0-1.891-1.313c-1.562-.005-3.125,0-4.687,0h-2.784m0-.96h5.568q.953,0,1.906,0a2.929,2.929,0,0,1,2.793,1.952,1.19,1.19,0,0,1-.531,1.5c-1.947,1.181-3.991,2.429-6.247,3.816a1.312,1.312,0,0,1-.693.206,1.329,1.329,0,0,1-.71-.215c-2.278-1.4-4.316-2.637-6.229-3.794a1.214,1.214,0,0,1-.539-1.554,2.914,2.914,0,0,1,2.777-1.909Q2316,454.343,2316.953,454.343Z" transform="translate(-0.203)" fill="#535353"/>
  </g>
</svg>
