<svg id="Mail_2" data-name="Mail 2" xmlns="http://www.w3.org/2000/svg" width="17.385" height="12.495" viewBox="0 0 17.385 12.495">
  <path id="Path_22" data-name="Path 22" d="M178.879,153.91H165.84a2.175,2.175,0,0,0-2.173,2.173v8.149a2.175,2.175,0,0,0,2.173,2.173h13.039a2.176,2.176,0,0,0,2.173-2.173v-8.149A2.176,2.176,0,0,0,178.879,153.91Zm1.087,10.322a1.088,1.088,0,0,1-1.087,1.087H165.84a1.088,1.088,0,0,1-1.087-1.087v-8.149A1.088,1.088,0,0,1,165.84,155h13.039a1.088,1.088,0,0,1,1.087,1.087Z" transform="translate(-163.667 -153.91)" fill="#fbcd21"/>
  <path id="Path_23" data-name="Path 23" d="M180.583,159.109a.544.544,0,0,0-.765-.077l-5.632,4.608-5.632-4.608a.543.543,0,0,0-.688.841l5.976,4.89a.544.544,0,0,0,.688,0l5.976-4.89A.544.544,0,0,0,180.583,159.109Z" transform="translate(-165.494 -156.194)" fill="#fbcd21"/>
  <path id="Path_24" data-name="Path 24" d="M186.594,167.069a.543.543,0,0,0-.768.768L188,170.01a.543.543,0,0,0,.768-.768Z" transform="translate(-173.715 -159.847)" fill="#fbcd21"/>
  <path id="Path_25" data-name="Path 25" d="M170,167.069l-2.173,2.173a.543.543,0,1,0,.768.768l2.173-2.173a.543.543,0,0,0-.768-.768Z" transform="translate(-165.494 -159.847)" fill="#fbcd21"/>
</svg>
