<svg xmlns="http://www.w3.org/2000/svg" width="40.334" height="32.26" viewBox="0 0 40.334 32.26">
  <g id="Group_7320" data-name="Group 7320" transform="translate(-1340 -849)">
    <path id="Path_23983" data-name="Path 23983" d="M-293.863,946.781q7.561,0,15.122,0a4.939,4.939,0,0,1,5.036,5.049q0,11.087,0,22.175a4.939,4.939,0,0,1-5.052,5.034q-15.121,0-30.244,0a4.942,4.942,0,0,1-5.036-5.05q0-11.087,0-22.174a4.939,4.939,0,0,1,5.052-5.034Zm-17.488,9.189v.455q0,8.714,0,17.428a2.313,2.313,0,0,0,2.516,2.5h29.907a2.317,2.317,0,0,0,2.536-2.524q0-8.693,0-17.387v-.456c-.207.126-.348.209-.487.3q-7.992,5.135-15.978,10.279a1.674,1.674,0,0,1-2.046-.012c-3.894-2.528-7.807-5.029-11.713-7.539C-308.165,958.019-309.716,957.021-311.352,955.97Zm17.5-6.5h-4.411q-5.336,0-10.671,0a2.275,2.275,0,0,0-2.4,2.008c-.045.3,0,.617-.032.922a.546.546,0,0,0,.319.566q8.421,5.4,16.829,10.821a.549.549,0,0,0,.7-.017q8.253-5.318,16.523-10.611a1.1,1.1,0,0,0,.607-1.091,2.362,2.362,0,0,0-2.6-2.6Z" transform="translate(1654.038 -97.781)" fill="#fbcd21"/>
  </g>
</svg>
