<svg xmlns="http://www.w3.org/2000/svg" width="67.265" height="67.019" viewBox="0 0 67.265 67.019">
  <g id="Experienced_icon" transform="translate(-772.092 6.356)">
    <path id="Path_13015" data-name="Path 13015" d="M794.456,28.935A19.436,19.436,0,1,1,820.156.09c7.232,8.03,6.833,21.209-3.232,28.806,14.013,5.909,21.566,16.345,22.433,31.675h-5.315a28.439,28.439,0,0,0-5.8-16.993,27.083,27.083,0,0,0-7.423-6.787l-6.753,8.168-5.718-4.713V60.554h-5.186V40.292l-5.63,4.666-6.876-8.245c-8.48,5.728-12.862,13.633-13.275,23.951h-5.285C772.938,45.278,780.469,34.852,794.456,28.935Zm25.4-15.95a14.137,14.137,0,1,0-14.151,14.155A14.159,14.159,0,0,0,819.861,12.985Zm-6.5,24.593,2.837-3.463-8.588-1.858-.161.412Zm-9.374-4.885-.16-.457-8.485,1.9,2.864,3.437Z" transform="translate(0 0)" fill="#fbcd21"/>
    <path id="Path_13016" data-name="Path 13016" d="M930.9,229.887h12.688v5.081H930.9Z" transform="translate(-117.236 -174.401)" fill="#fbcd21"/>
  </g>
</svg>
