<svg xmlns="http://www.w3.org/2000/svg" width="18" height="15.292" viewBox="0 0 18 15.292">
  <g id="Group_7507" data-name="Group 7507" transform="translate(-1227.112 -278.883)">
    <path id="Path_24069" data-name="Path 24069" d="M1227.112,305.023a11.048,11.048,0,0,1,2.971-3.738,9.874,9.874,0,0,1,4.127-2.095,8.4,8.4,0,0,1,5.79.708,11.539,11.539,0,0,1,5,4.881.7.7,0,0,1-.413,1.067.694.694,0,0,1-.808-.374,9.859,9.859,0,0,0-1.438-2.031,9.356,9.356,0,0,0-4.053-2.717,6.993,6.993,0,0,0-5.219.335,9.78,9.78,0,0,0-4.584,4.346.733.733,0,0,1-.7.461.682.682,0,0,1-.648-.5c0-.009-.017-.014-.026-.021Z" transform="translate(0 -14.451)" fill="#535353"/>
    <path id="Path_24070" data-name="Path 24070" d="M1250.353,315.678a3.457,3.457,0,1,1,3.461-3.444A3.453,3.453,0,0,1,1250.353,315.678Zm-.015-1.407a2.051,2.051,0,1,0-2.02-2.089A2.048,2.048,0,0,0,1250.338,314.271Z" transform="translate(-14.248 -21.503)" fill="#535353"/>
    <path id="Path_24071" data-name="Path 24071" d="M1229.5,294.861a1.941,1.941,0,0,1-.442-.219c-.535-.463-1.06-.939-1.58-1.419a.7.7,0,0,1,.94-1.04q.8.7,1.577,1.423a.677.677,0,0,1,.172.786A.8.8,0,0,1,1229.5,294.861Z" transform="translate(-0.096 -9.441)" fill="#535353"/>
    <path id="Path_24072" data-name="Path 24072" d="M1281.355,294.814a.725.725,0,0,1-.722-.409.655.655,0,0,1,.123-.765c.543-.506,1.093-1.007,1.655-1.493a.7.7,0,0,1,.941,1.023c-.544.514-1.1,1.012-1.67,1.5A1,1,0,0,1,1281.355,294.814Z" transform="translate(-38.464 -9.432)" fill="#535353"/>
    <path id="Path_24073" data-name="Path 24073" d="M1258.117,280.645c0,.34,0,.679,0,1.019a.7.7,0,1,1-1.405.006q0-1.027,0-2.055a.7.7,0,1,1,1.405-.006C1258.119,279.954,1258.117,280.3,1258.117,280.645Z" transform="translate(-21.299)" fill="#535353"/>
  </g>
</svg>
