<svg xmlns="http://www.w3.org/2000/svg" width="60" height="60.003" viewBox="0 0 60 60.003">
  <g id="Group_7370" data-name="Group 7370" transform="translate(-400 -2152)">
    <g id="Group_7362" data-name="Group 7362">
      <g id="Group_7359" data-name="Group 7359" transform="translate(-647.975 2342.445)">
        <path id="Path_23990" data-name="Path 23990" d="M1087.118-130.442c-1.2-.229-2.436-.36-3.605-.7a19.127,19.127,0,0,1-13.444-12.953c-.131-.39-.282-.557-.707-.586a22.847,22.847,0,0,1-9.837-2.94,1.112,1.112,0,0,0-.762-.027c-3.443.935-6.881,1.888-10.319,2.837-.09.024-.18.044-.366.088.352-1.28.683-2.49,1.019-3.7.643-2.33,1.3-4.658,1.919-6.994a1.27,1.27,0,0,0-.1-.86,22.9,22.9,0,0,1,12.155-32.762,22.878,22.878,0,0,1,30.345,17.374c.166.878.236,1.778.323,2.67a.6.6,0,0,0,.471.613c7.433,2.507,11.911,7.632,13.492,15.3.121.589.185,1.19.275,1.784v2.93a3.556,3.556,0,0,0-.1.45,18.691,18.691,0,0,1-2.336,7.471,1.246,1.246,0,0,0-.115,1.04c.772,2.735,1.528,5.475,2.288,8.213.053.2.089.4.143.638-.148-.031-.223-.041-.295-.061-2.8-.773-5.594-1.533-8.383-2.33a1.851,1.851,0,0,0-1.365.145c-1.514.651-3.049,1.275-4.618,1.774a24.748,24.748,0,0,1-3.145.589Zm-34.01-19.3c2.093-.58,4.069-1.11,6.033-1.682a1.376,1.376,0,0,1,1.248.192,19,19,0,0,0,14.353,2.709,19.378,19.378,0,0,0,15.211-22.492,19.412,19.412,0,0,0-25.086-14.944,19.382,19.382,0,0,0-10.343,28.81,1.735,1.735,0,0,1,.212,1.572C1054.173-153.68,1053.667-151.763,1053.108-149.745Zm40.543-15.124a22.748,22.748,0,0,1-6.564,13.509,22.754,22.754,0,0,1-13.549,6.6,15.542,15.542,0,0,0,4.474,6.758,15.786,15.786,0,0,0,19.2,1.482,1.576,1.576,0,0,1,1.461-.223c1.348.419,2.718.77,4.17,1.174-.4-1.446-.746-2.8-1.155-4.133a1.635,1.635,0,0,1,.21-1.514,15.825,15.825,0,0,0-3.361-20.973A14.9,14.9,0,0,0,1093.651-164.869Z" transform="translate(0 0)" fill="#535353"/>
        <path id="Path_23991" data-name="Path 23991" d="M1058.394-176.532a6.885,6.885,0,0,1,2.658-5.454,6.993,6.993,0,0,1,9.574.781,7.007,7.007,0,0,1-.221,9.651c-.923.926-1.931,1.765-2.867,2.677a1.313,1.313,0,0,0-.346.8c-.047.734-.015,1.473-.015,2.227h-3.511c0-1.386-.014-2.75.015-4.112,0-.169.214-.355.363-.5,1.273-1.182,2.574-2.335,3.828-3.537a3.448,3.448,0,0,0,.747-3.939,3.53,3.53,0,0,0-3.387-2.065,3.516,3.516,0,0,0-3.281,2.98c-.021.152-.043.3-.07.491Z" transform="translate(5.471 3.635)" fill="#535353"/>
        <path id="Path_23992" data-name="Path 23992" d="M1061.875-169.606h3.43v3.467h-3.43Z" transform="translate(7.299 10.942)" fill="#535353"/>
      </g>
    </g>
  </g>
</svg>
