<svg xmlns="http://www.w3.org/2000/svg" width="14.946" height="12.441" viewBox="0 0 14.946 12.441">
  <g id="Group_4772" data-name="Group 4772" transform="translate(-883.519 -2412)">
    <g id="Group_4771" data-name="Group 4771" transform="translate(-21 -54)">
      <path id="Path_13020" data-name="Path 13020" d="M1710.327,10.768c-.84-.825-1.686-1.644-2.519-2.475a1.286,1.286,0,1,1,1.807-1.769q2.3,2.293,4.6,4.6a1.3,1.3,0,0,1,.011,2.126q-2.312,2.329-4.64,4.641a1.281,1.281,0,1,1-1.785-1.79c.841-.841,1.694-1.67,2.684-2.644h-.809q-4.165,0-8.33,0c-.977,0-1.529-.474-1.517-1.287.012-.785.554-1.238,1.5-1.239q4.165,0,8.33,0h.608Z" transform="translate(-795.306 2460.031)" fill="#030519"/>
    </g>
  </g>
</svg>
