<svg xmlns="http://www.w3.org/2000/svg" width="24" height="23.937" viewBox="0 0 24 23.937">
  <path id="Path_13908" data-name="Path 13908" d="M1996.937,929.554c0-2.085.007-4.17,0-6.255a3.009,3.009,0,0,1,1.34-2.618q4.993-3.579,9.967-7.186a1.029,1.029,0,0,1,1.4,0q5.021,3.622,10.041,7.245a2.88,2.88,0,0,1,1.255,2.468q0,6.4,0,12.8a1.089,1.089,0,0,1-1.134,1.149q-3.831.007-7.662,0a1.017,1.017,0,0,1-1.085-1.1c0-1.568,0-3.135,0-4.7a2.19,2.19,0,1,0-4.38-.074c-.013,1.56,0,3.12,0,4.679a1.053,1.053,0,0,1-1.2,1.194h-7.328a1.06,1.06,0,0,1-1.2-1.206Q1996.937,932.753,1996.937,929.554Zm7.8,5.556v-.3c0-1.226-.028-2.452.013-3.677a4.163,4.163,0,0,1,8.317-.086c.052,1.271.016,2.547.02,3.82,0,.094,0,.187,0,.287h5.806v-.274q0-5.8.005-11.6a1.051,1.051,0,0,0-.473-.927q-4.679-3.384-9.35-6.779a.234.234,0,0,0-.33,0q-4.683,3.378-9.373,6.747a.988.988,0,0,0-.445.867q.009,5.838,0,11.676v.25Z" transform="translate(-1996.934 -913.222)" fill="#fbcd21"/>
</svg>
