<svg xmlns="http://www.w3.org/2000/svg" width="44.204" height="50.428" viewBox="0 0 44.204 50.428">
  <g id="Group_5242" data-name="Group 5242" transform="translate(-1846.598 774.333)">
    <path id="Path_14087" data-name="Path 14087" d="M1859.337-740.344v1.7h-9.858c-.912,0-1.18.262-1.18,1.156q0,8.632,0,17.263c0,.859.277,1.131,1.153,1.131q6.533,0,13.067,0a7.623,7.623,0,0,0,5.028-1.826.922.922,0,0,0,.289-.615c.028-1.147.013-2.295.013-3.475h1.7c0,1.146.015,2.275-.009,3.4a.847.847,0,0,0,.367.755,7.792,7.792,0,0,0,4.953,1.758q6.56.009,13.12,0c.834,0,1.119-.283,1.119-1.112q0-8.659,0-17.316c0-.837-.281-1.121-1.109-1.122q-4.648,0-9.3,0h-.611v-1.7h.527q4.7,0,9.4,0a2.562,2.562,0,0,1,2.787,2.769q0,8.711,0,17.422a2.56,2.56,0,0,1-2.746,2.758c-4,0-8-.052-12,.019a10.482,10.482,0,0,1-7.342-2.263,9.319,9.319,0,0,1-4.381,2.066,11.411,11.411,0,0,1-1.845.171c-4.373.015-8.747.009-13.12.006a2.557,2.557,0,0,1-2.763-2.74q0-8.737,0-17.475a2.553,2.553,0,0,1,2.715-2.734q4.755-.006,9.507,0Z" transform="translate(0 -6.533)" fill="#eef9ff"/>
    <path id="Path_14088" data-name="Path 14088" d="M1870.87-741.957c-1.611,0-3.223,0-4.834,0-.744,0-1.037-.285-1.065-1.008a7.9,7.9,0,0,0-2.563-5.648,13.054,13.054,0,0,1-3.856-6.411,12.753,12.753,0,0,1,10.94-15.744,12.686,12.686,0,0,1,14.034,10.784,12.344,12.344,0,0,1-3.755,11.021,9.035,9.035,0,0,0-2.733,4.63,8.452,8.452,0,0,0-.156,1.262c-.044.864-.293,1.115-1.179,1.116Q1873.287-741.955,1870.87-741.957Zm4.327-1.714c.049-.3.086-.562.135-.821a10.711,10.711,0,0,1,3.224-5.666,10.629,10.629,0,0,0,3.13-10.381,10.949,10.949,0,0,0-12.137-8.527,11.07,11.07,0,0,0-9.512,12.846,11.2,11.2,0,0,0,3.473,6.293,9.837,9.837,0,0,1,2.908,4.962c.1.424.166.858.247,1.292Z" transform="translate(-2.224 -0.671)" fill="#eef9ff"/>
    <path id="Path_14089" data-name="Path 14089" d="M1872.972-730.874c1.061,0,2.122,0,3.183,0,.732,0,1.011.3,1.045,1.027a4.326,4.326,0,0,1-2.532,4.545,4.243,4.243,0,0,1-5.96-3.589c-.021-.353-.019-.708-.008-1.061a.846.846,0,0,1,.931-.92C1870.744-730.882,1871.858-730.874,1872.972-730.874Zm2.506,1.724h-5.045a2.5,2.5,0,0,0,2.416,2.523A2.541,2.541,0,0,0,1875.477-729.15Z" transform="translate(-4.247 -8.353)" fill="#eef9ff"/>
    <path id="Path_14090" data-name="Path 14090" d="M1862.9-722.4v1.624h-11V-722.4Z" transform="translate(-1.019 -9.982)" fill="#eef9ff"/>
    <path id="Path_14091" data-name="Path 14091" d="M1893.414-722.409v1.635h-10.983v-1.635Z" transform="translate(-6.888 -9.981)" fill="#eef9ff"/>
    <path id="Path_14092" data-name="Path 14092" d="M1877.813-732.342h-10.131v-1.636h10.131Z" transform="translate(-4.053 -7.757)" fill="#eef9ff"/>
    <path id="Path_14093" data-name="Path 14093" d="M1851.909-727.689h9.281v1.636h-9.281Z" transform="translate(-1.021 -8.966)" fill="#eef9ff"/>
    <path id="Path_14094" data-name="Path 14094" d="M1884.527-727.686h9.287v1.636h-9.287Z" transform="translate(-7.291 -8.967)" fill="#eef9ff"/>
    <path id="Path_14095" data-name="Path 14095" d="M1859.5-732.933v1.637h-7.583v-1.637Z" transform="translate(-1.022 -7.958)" fill="#eef9ff"/>
    <path id="Path_14096" data-name="Path 14096" d="M1886.618-731.3v-1.633h7.591v1.633Z" transform="translate(-7.693 -7.958)" fill="#eef9ff"/>
    <path id="Path_14097" data-name="Path 14097" d="M1854.732-773.242l1.075-1.031,4.142,4.141-1.1,1.025Z" transform="translate(-1.564 -0.011)" fill="#eef9ff"/>
    <path id="Path_14098" data-name="Path 14098" d="M1890.849-774.333l1.15,1.127-4.167,4.157-1.045-1.225Z" transform="translate(-7.725)" fill="#eef9ff"/>
    <path id="Path_14099" data-name="Path 14099" d="M1847.68-754.459v-1.636h5.884v1.636Z" transform="translate(-0.208 -3.506)" fill="#eef9ff"/>
    <path id="Path_14100" data-name="Path 14100" d="M1892.93-754.46v-1.634h5.883v1.634Z" transform="translate(-8.906 -3.506)" fill="#eef9ff"/>
    <path id="Path_14101" data-name="Path 14101" d="M1871.938-760.338q3.693,0,7.385,0c.832,0,1.111.282,1.112,1.117q0,3.135,0,6.269c0,.83-.284,1.112-1.119,1.112q-7.385,0-14.769,0c-.83,0-1.11-.284-1.111-1.119q0-3.135,0-6.269c0-.832.28-1.111,1.117-1.111Q1868.247-760.341,1871.938-760.338Zm-6.784,6.759h13.553v-5.027h-13.553Z" transform="translate(-3.236 -2.69)" fill="#eef9ff"/>
    <path id="Path_14102" data-name="Path 14102" d="M1879.043-756.094v1.635H1874v-1.635Z" transform="translate(-5.267 -3.506)" fill="#eef9ff"/>
    <path id="Path_14103" data-name="Path 14103" d="M1867.673-754.461v-1.633h3.334v1.633Z" transform="translate(-4.051 -3.506)" fill="#eef9ff"/>
  </g>
</svg>
