<svg xmlns="http://www.w3.org/2000/svg" width="34.305" height="38.753" viewBox="0 0 34.305 38.753">
  <path id="Path_23948" data-name="Path 23948" d="M-689.131,550c.32.106.65.186.956.32a3.91,3.91,0,0,1,1.962,5.325c-.562,1.169-1.16,2.32-1.728,3.486a1.372,1.372,0,0,0-.136.573c-.01,1.6-.006,3.2-.006,4.808a8.046,8.046,0,0,1-3.233,6.686c-.083.064-.187.166-.192.255a4.286,4.286,0,0,0,.648,2.924,3.761,3.761,0,0,0,2.516,1.455c1.649.285,3.3.562,4.938.914a5.63,5.63,0,0,1,4.418,5.211c.076,2.255.016,4.514.016,6.8h-34.239a.565.565,0,0,1-.033-.135c.006-2.233-.044-4.469.036-6.7a5.734,5.734,0,0,1,4.746-5.259c1.676-.28,3.349-.589,5.017-.914a3.443,3.443,0,0,0,2.746-3.16c0-.05,0-.1.011-.151a1.65,1.65,0,0,0-.673-1.669,7.69,7.69,0,0,1-2.751-6.066c-.016-1.653,0-3.307-.009-4.96a1.554,1.554,0,0,0-.153-.644c-.521-1.076-1.031-2.159-1.6-3.209a3.938,3.938,0,0,1,2.718-5.826c.032-.005.06-.04.091-.06Zm-12.64,10.295c0,1.759,0,3.472,0,5.185a2.2,2.2,0,0,0,.057.336,5.742,5.742,0,0,0,6.42,4.619,5.7,5.7,0,0,0,4.889-5.742c.006-1.337,0-2.675,0-4.012,0-.121-.013-.241-.026-.455a2.326,2.326,0,0,1-2.687-1.034,3.619,3.619,0,0,0-1.2-1.121,4.536,4.536,0,0,0-1.647-.055,5.5,5.5,0,0,0-1.944.076,4.036,4.036,0,0,0-1.382,1.314,2.1,2.1,0,0,1-2.149.892A2.125,2.125,0,0,0-701.771,560.295Zm5.71-8.009c-2.069,0-4.14.027-6.208-.008a1.676,1.676,0,0,0-1.569,2.553c.492.879.924,1.792,1.353,2.7.151.322.315.516.7.456.3-.046.608.067.874-.221.592-.637,1.216-1.246,1.847-1.846a.843.843,0,0,1,.522-.215q2.441-.024,4.883,0a.906.906,0,0,1,.55.237,20.228,20.228,0,0,1,1.5,1.5,1.437,1.437,0,0,0,1.349.55.483.483,0,0,0,.46-.291c.467-.964.955-1.917,1.431-2.875a1.646,1.646,0,0,0-1.594-2.543Q-693.013,552.285-696.061,552.286Zm9.091,30.792h2.32v3.384h3.4c0-1.392.006-2.754,0-4.116a3.422,3.422,0,0,0-2.616-3.341c-1.077-.252-2.177-.4-3.263-.625a.408.408,0,0,0-.47.182q-1.931,2.429-3.874,4.849a.675.675,0,0,0-.149.216c-.239.935-.471,1.872-.713,2.842h5.365Zm-18.27,3.387h5.375c-.242-.971-.475-1.909-.714-2.844a.577.577,0,0,0-.127-.184c-1.307-1.635-2.612-3.273-3.93-4.9a.5.5,0,0,0-.4-.141c-1.043.17-2.088.339-3.122.552a3.477,3.477,0,0,0-2.792,3.44c-.005,1.249,0,2.5,0,3.748,0,.109.015.217.024.325h3.409v-3.382h2.278Zm11.378-14a7.933,7.933,0,0,1-4.423.012l-.631,2.509,2.817,2.394,2.862-2.434c-.15-.441-.309-.827-.41-1.226S-693.79,572.909-693.863,572.469ZM-696.1,580.7c-.707.862-1.377,1.666-2.028,2.484a.541.541,0,0,0-.08.409c.208.882.445,1.756.654,2.637a.285.285,0,0,0,.334.262q1.117-.013,2.233,0c.191,0,.291-.045.34-.254.209-.881.443-1.756.657-2.637a.473.473,0,0,0-.029-.352C-694.694,582.408-695.384,581.575-696.1,580.7Zm-1.605-1.666-2.652-2.252-1.865,1.073,2.7,3.381Zm7.729-1.18-1.865-1.076-2.65,2.257,1.808,2.2Z" transform="translate(713.256 -550)" fill="#323232"/>
</svg>
