<svg xmlns="http://www.w3.org/2000/svg" width="33" height="33.063" viewBox="0 0 33 33.063">
  <g id="Group_7181" data-name="Group 7181" transform="translate(-187.112 -366)">
    <path id="Path_23877" data-name="Path 23877" d="M216.246,399.063h-7.734a1.229,1.229,0,0,1-.782-1.3c.023-2.54.009-5.08.009-7.62v-.367h-5.158c0,.293.016.572,0,.847a.424.424,0,0,0,.294.478,3.1,3.1,0,0,1-.019,5.6,2.917,2.917,0,0,1-3.26-.414,3.1,3.1,0,0,1,.67-5.222c.1-.047.24-.145.247-.229.028-.349.012-.7.012-1.079H189.344a1.048,1.048,0,0,1-1.2-1.2q0-10.041,0-20.08V368.1c-.731-.16-1.09-.579-1.027-1.191a1.117,1.117,0,0,1,.768-.909H214.7a1.123,1.123,0,0,1,.767.91c.065.61-.293,1.026-1.027,1.191,0,.316,0,.639,0,.96a1.03,1.03,0,1,1-2.059.013c0-.329,0-.659,0-.985H190.232v19.584h16.746c-.161-.12-.271-.2-.383-.286q-2.868-2.108-5.739-4.216a1.884,1.884,0,0,1-.778-1.073,2.146,2.146,0,0,1,.694-2.189,1.834,1.834,0,0,1,2.09-.348c1.468.6,2.941,1.184,4.412,1.774a7.454,7.454,0,0,0,1.705.648,21.074,21.074,0,0,0,2.64.028,5.456,5.456,0,0,1,.353-10.838,5.422,5.422,0,0,1,5.738,4.449,5.273,5.273,0,0,1-.953,4.155,5.594,5.594,0,0,1-3.619,2.239h.353c1.353,0,2.706,0,4.06,0a2.556,2.556,0,0,1,2.434,1.773c.04.12.086.238.128.356v6.588a.923.923,0,0,0-.066.139,2.545,2.545,0,0,1-2.114,1.96,6.563,6.563,0,0,1-.915.046v.367c0,1.507-.02,3.014.009,4.52A1.218,1.218,0,0,1,216.246,399.063Zm-3.2-8.326.006.061H217.3c.584,0,.751-.166.751-.743q0-2.615,0-5.229c0-.581-.165-.746-.748-.746q-4.206,0-8.409-.005a1.914,1.914,0,0,1-.685-.131c-1.863-.738-3.719-1.49-5.578-2.237-.086-.034-.174-.058-.261-.088a.885.885,0,0,0,.25.256q3.307,2.438,6.616,4.871a1.271,1.271,0,0,1,.57,1.116c-.013,2.916-.006,5.832-.006,8.748v.362h5.14v-4.108c-.918,0-1.818,0-2.718,0a1.906,1.906,0,0,1-1.879-1.466,1.871,1.871,0,0,1,.965-2.127c1.416-.691,2.847-1.35,4.28-2.006a.955.955,0,0,1,1.1.2,1.031,1.031,0,0,1-.33,1.723C215.259,389.707,214.152,390.22,213.046,390.738Zm2.683-14.121a3.351,3.351,0,1,0-3.395,3.332A3.382,3.382,0,0,0,215.729,376.616Zm-14.188,16.248a1.032,1.032,0,1,0,1.039,1.023A1.059,1.059,0,0,0,201.541,392.865Z" transform="translate(0)" fill="#030519"/>
    <path id="Path_23878" data-name="Path 23878" d="M198.978,372.24c1.719,0,3.437,0,5.156,0a1.031,1.031,0,0,1,.283,2.019,1.361,1.361,0,0,1-.381.042q-5.075,0-10.15,0a1.034,1.034,0,1,1,0-2.062Q196.433,372.238,198.978,372.24Z" transform="translate(-0.505 -0.556)" fill="#030519"/>
    <path id="Path_23879" data-name="Path 23879" d="M196.385,378.841c-.838,0-1.676,0-2.513,0a1.033,1.033,0,1,1,0-2.063q2.513,0,5.026,0a1.033,1.033,0,1,1,0,2.063C198.061,378.843,197.223,378.841,196.385,378.841Z" transform="translate(-0.505 -0.96)" fill="#030519"/>
    <path id="Path_23880" data-name="Path 23880" d="M193.791,387.348a1.032,1.032,0,1,1,1.045-1A1.024,1.024,0,0,1,193.791,387.348Z" transform="translate(-0.505 -1.719)" fill="#030519"/>
  </g>
</svg>
