<svg xmlns="http://www.w3.org/2000/svg" width="49.463" height="49.472" viewBox="0 0 49.463 49.472">
  <g id="Group_5243" data-name="Group 5243" transform="translate(-1988.981 822.344)">
    <path id="Path_14104" data-name="Path 14104" d="M2004.937-778.986v-9.088c0-1.1.182-1.283,1.259-1.283h14.7v-.576q0-3.19,0-6.38c0-.751.271-1.021,1.021-1.021h15.5c.752,0,1.026.272,1.026,1.018q0,12.537,0,25.073c0,.752-.273,1.031-1.012,1.031q-23.728,0-47.455,0c-.713,0-.991-.282-.993-1q0-3.364,0-6.73c0-.781.264-1.044,1.048-1.044q7.127,0,14.255,0Zm-14.335,7.144h46.205V-795.71h-14.319v6.8c0,.916-.232,1.149-1.146,1.149h-14.81v9.19c0,.956-.222,1.181-1.163,1.181H1990.6Z" transform="translate(0 -2.661)" fill="#eef9ff"/>
    <path id="Path_14105" data-name="Path 14105" d="M2016.2-814.452c-2.5-1.122-3.519-3.119-2.739-5.262a4.008,4.008,0,0,1,4.788-2.5,4.029,4.029,0,0,1,2.784,5.063c.187-.095.341-.166.489-.248q3.484-1.933,6.965-3.867c.961-.533,1.489-.225,1.49.874,0,.864-.016,1.728.006,2.591a1.077,1.077,0,0,1-.635,1.076q-3.123,1.71-6.221,3.464c-.167.095-.375.279-.4.442-.193,1.531-.349,3.066-.526,4.7.327-.23.593-.411.853-.6.593-.427,1.183-.858,1.776-1.286a3.078,3.078,0,0,1,3.636-.206,3.08,3.08,0,0,1,1.483,3.288c-.239,1.76-.5,3.516-.764,5.273-.106.719-.51.979-1.191.761q-1.067-.34-2.125-.706a.842.842,0,0,1-.646-1.109c.142-.844.281-1.687.442-2.654l-3.3,2.434q-6.634,4.9-13.264,9.8c-.344.255-.72.464-1.079.152a1.247,1.247,0,0,1-.371-.8c-.045-.945-.005-1.894-.022-2.841a1.091,1.091,0,0,1,.495-.965q2.781-2.066,5.539-4.159a1.047,1.047,0,0,0,.41-.618c.206-2.016.374-4.035.551-6.053.01-.112,0-.225,0-.42-.206.115-.361.2-.511.287q-2.9,1.741-5.807,3.485c-.338.2-.668.389-1.064.157s-.413-.6-.409-1c.009-.83.033-1.663-.007-2.491a1.23,1.23,0,0,1,.739-1.27c2.752-1.5,5.489-3.036,8.231-4.56C2015.91-814.281,2016.022-814.349,2016.2-814.452Zm11.526,11.8c.223-1.557.443-3.047.648-4.539a1.54,1.54,0,0,0-.8-1.685,1.61,1.61,0,0,0-1.859.2c-1.3.955-2.606,1.894-3.905,2.846a.849.849,0,0,1-1.012.136.873.873,0,0,1-.382-.952c.256-2.227.521-4.453.748-6.682a1.26,1.26,0,0,1,.725-1.086c2.053-1.121,4.094-2.265,6.135-3.411.141-.08.32-.228.337-.363a9.491,9.491,0,0,0,.016-1.172c-.205.106-.338.17-.465.24l-10.138,5.637q-4.482,2.491-8.962,4.984a.717.717,0,0,0-.359.4,7.074,7.074,0,0,0-.017,1.087c.225-.124.383-.2.536-.3q2.99-1.791,5.977-3.587c.358-.216.707-.4,1.106-.128a.978.978,0,0,1,.339,1.026c-.258,2.744-.518,5.488-.758,8.234a1.225,1.225,0,0,1-.527.956c-1.76,1.307-3.485,2.664-5.278,3.924a1.448,1.448,0,0,0-.56,1.643c.189-.133.338-.233.482-.34q8.154-6.025,16.305-12.054c.35-.259.7-.489,1.131-.218s.413.66.334,1.1c-.224,1.256-.421,2.517-.634,3.811Zm-8.125-15.677a2.4,2.4,0,0,0-2.353-2.4,2.4,2.4,0,0,0-2.428,2.38,2.4,2.4,0,0,0,2.353,2.4A2.4,2.4,0,0,0,2019.6-818.333Z" transform="translate(-1.898 0)" fill="#eef9ff"/>
    <path id="Path_14106" data-name="Path 14106" d="M2003.377-798.375l.889,1.327c-2.911,1.943-5.814,3.879-8.773,5.852l-.886-1.323Z" transform="translate(-0.599 -2.55)" fill="#eef9ff"/>
    <path id="Path_14107" data-name="Path 14107" d="M1995.479-798.594l-.895-1.319,5.575-3.8.9,1.312Z" transform="translate(-0.596 -1.982)" fill="#eef9ff"/>
    <path id="Path_14108" data-name="Path 14108" d="M2001.9-787.23l-.958-1.274,3.185-2.391.959,1.272Z" transform="translate(-1.273 -3.346)" fill="#eef9ff"/>
  </g>
</svg>
