<svg xmlns="http://www.w3.org/2000/svg" width="46.5" height="42.152" viewBox="0 0 46.5 42.152">
  <g id="Group_5222" data-name="Group 5222" transform="translate(-937 -2523)">
    <g id="Group_5172" data-name="Group 5172" transform="translate(-2034.892 2336.055)">
      <path id="Path_14059" data-name="Path 14059" d="M2971.892,188.047a1.776,1.776,0,0,1,1.872-1.1q21.405.026,42.811.012c1.3,0,1.807.513,1.807,1.815q0,11.645,0,23.29a3.228,3.228,0,0,1-.027.588,1.45,1.45,0,0,1-2.874-.2c-.008-.151,0-.3,0-.454v-16.32h-.586q-15.5,0-31.008,0a3.536,3.536,0,0,1-.633-.026,1.45,1.45,0,0,1,.192-2.875c.151-.009.3,0,.454,0h31.542v-2.874h-40.615v28.988h26c-.064-.194-.121-.379-.186-.562-.817-2.306-1.631-4.614-2.459-6.917a1.517,1.517,0,0,1,.273-1.725,1.5,1.5,0,0,1,1.721-.289c.719.267,1.446.514,2.205.782v-3.565H2995.9a2.413,2.413,0,0,0-.031.288c0,1.3-.009,2.6.008,3.9a.787.787,0,0,0,.22.49,1.48,1.48,0,0,1,.4,1.618,1.431,1.431,0,0,1-1.381.925q-5.424.009-10.85,0a1.426,1.426,0,0,1-1.467-1.467q-.011-6.152,0-12.3a1.425,1.425,0,0,1,1.5-1.477q5.04-.009,10.079,0a1.437,1.437,0,0,1,1.489,1.492c.011,1.177,0,2.355,0,3.59h.513q3.632,0,7.264,0a1.484,1.484,0,0,1,1.667,1.682c0,1.8.014,3.6-.01,5.4a.556.556,0,0,0,.459.632c3.25,1.139,6.494,2.3,9.74,3.447.128.046.257.088.382.14a1.417,1.417,0,0,1,.948,1.273,1.387,1.387,0,0,1-.735,1.362c-.679.4-1.372.767-2.058,1.151-.13.072-.255.152-.429.256.145.11.253.2.372.28,1.207.807,2.417,1.609,3.621,2.42a1.462,1.462,0,0,1,.241,2.45q-2.193,2.205-4.4,4.4a1.455,1.455,0,0,1-2.349-.123q-1.439-1.754-2.875-3.512c-.084-.1-.175-.2-.3-.342-.5.894-.972,1.746-1.445,2.6a1.491,1.491,0,0,1-1.071.83,1.464,1.464,0,0,1-1.706-1.083c-.555-1.55-1.113-3.1-1.641-4.659a.555.555,0,0,0-.635-.455c-9.216.012-18.432,0-27.648.022a1.784,1.784,0,0,1-1.875-1.1Zm13.834,13.459v9.387h7.208v-9.387Zm26.635,23.893,2.213-2.2c-.1-.072-.238-.17-.376-.261l-3.959-2.641c-.1-.067-.2-.131-.3-.2a1.436,1.436,0,0,1,.143-2.456c.563-.336,1.142-.644,1.787-1.007l-10.009-3.549c1.2,3.379,2.361,6.649,3.554,10.009.373-.669.68-1.239,1.007-1.8a1.305,1.305,0,0,1,1.485-.709,2.025,2.025,0,0,1,1,.626C3010.09,222.593,3011.232,224.021,3012.361,225.4Z" fill="#fbcd21"/>
      <path id="Path_14060" data-name="Path 14060" d="M2984.5,198.2a1.374,1.374,0,1,1-1.375,1.361A1.385,1.385,0,0,1,2984.5,198.2Z" transform="translate(-5.728 -5.74)" fill="#fbcd21"/>
    </g>
  </g>
</svg>
