<svg id="Group_752" data-name="Group 752" xmlns="http://www.w3.org/2000/svg" width="13.059" height="18.569" viewBox="0 0 13.059 18.569">
  <path id="Path_1361" data-name="Path 1361" d="M949.13,69.062a6.527,6.527,0,0,1,5.67,9.674c-1.634,2.883-3.388,5.7-5.094,8.541a.55.55,0,0,1-1.028,0c-1.749-2.816-3.541-5.607-5.224-8.463a6.493,6.493,0,0,1,4.777-9.666C948.529,69.108,948.83,69.09,949.13,69.062Zm.072,16.966c1.609-2.706,3.243-5.328,4.746-8.023a5.238,5.238,0,0,0-.778-6,5.427,5.427,0,0,0-8.649,6.5c1.486,2.428,3,4.839,4.5,7.258C949.063,85.833,949.112,85.9,949.2,86.028Z" transform="translate(-942.576 -69.062)" fill="#fbcd21"/>
  <path id="Path_1362" data-name="Path 1362" d="M991.016,120.848a3.258,3.258,0,1,1,3.255-3.24A3.256,3.256,0,0,1,991.016,120.848Zm-.02-1.082a2.176,2.176,0,1,0-2.157-2.21A2.171,2.171,0,0,0,991,119.766Z" transform="translate(-984.485 -111.054)" fill="#fbcd21"/>
</svg>
