<svg xmlns="http://www.w3.org/2000/svg" width="48.062" height="48.01" viewBox="0 0 48.062 48.01">
  <g id="Group_7318" data-name="Group 7318" transform="translate(-550 -841)">
    <g id="Group_7317" data-name="Group 7317" transform="translate(1039.321 68.982)">
      <path id="Path_23977" data-name="Path 23977" d="M-459.282,816.3v-2.609q0-6.381,0-12.762c0-1.191.548-1.873,1.484-1.883s1.512.675,1.513,1.855q.007,7.133,0,14.264v1.122c.322-.11.58-.186.828-.285,3.477-1.388,6.946-2.8,10.438-4.153a1.02,1.02,0,0,0,.761-1.156c-.025-5.13-.014-10.26-.014-15.39,0-.25-.011-.5.005-.751a1.5,1.5,0,0,1,1.477-1.511,1.486,1.486,0,0,1,1.51,1.567c.018,3.034.007,6.069.007,9.1,0,2.846-.014,5.693.009,8.539a1.735,1.735,0,0,1-1.2,1.8c-4.87,1.942-9.731,3.907-14.616,5.809a2.41,2.41,0,0,1-1.6-.064q-6.584-2.568-13.128-5.241a2.357,2.357,0,0,0-1.95-.017c-4.362,1.782-8.743,3.517-13.119,5.263-1.515.6-2.434-.026-2.434-1.674q0-13.09-.013-26.181a1.884,1.884,0,0,1,1.361-1.974c4.759-1.882,9.5-3.819,14.265-5.678a2.716,2.716,0,0,1,1.78-.005c2.8,1.053,5.576,2.193,8.353,3.315,1.1.446,1.52,1.227,1.156,2.089-.373.886-1.171,1.137-2.295.693-1.887-.745-3.767-1.506-5.651-2.257-.283-.113-.571-.211-.944-.348v.92c0,7.319.011,14.639-.016,21.958a1.084,1.084,0,0,0,.823,1.208c3.431,1.335,6.844,2.72,10.263,4.087C-459.943,816.067-459.655,816.166-459.282,816.3Zm-15.015-28.53c-.367.138-.626.23-.882.332-3.444,1.377-6.879,2.776-10.338,4.114a1.079,1.079,0,0,0-.808,1.216c.023,7.342.014,14.684.017,22.026,0,.259.032.519.054.85,3.889-1.55,7.682-3.051,11.457-4.6a1.086,1.086,0,0,0,.478-.832c.041-2.03.022-4.061.022-6.092Z" fill="#fbcd21"/>
      <path id="Path_23978" data-name="Path 23978" d="M-451.765,772.018a10.514,10.514,0,0,1,10.484,10.6,13.149,13.149,0,0,1-2.117,6.039,59.337,59.337,0,0,1-7.14,9.735,1.444,1.444,0,0,1-2.356.118,55.467,55.467,0,0,1-8.382-12.033C-464.538,779.779-459.153,771.99-451.765,772.018Zm0,23.242c2.76-3.446,5.407-6.793,7.069-10.79a5.5,5.5,0,0,0,.261-3.488,7.257,7.257,0,0,0-5.467-5.705,7.056,7.056,0,0,0-7.649,2.5,6.659,6.659,0,0,0-.842,7.769A53.765,53.765,0,0,0-451.769,795.26Z" fill="#fbcd21"/>
      <path id="Path_23979" data-name="Path 23979" d="M-451.794,778.028a4.544,4.544,0,0,1,4.516,4.456,4.545,4.545,0,0,1-4.527,4.539,4.544,4.544,0,0,1-4.468-4.5A4.544,4.544,0,0,1-451.794,778.028Zm1.513,4.542a1.51,1.51,0,0,0-1.426-1.539,1.51,1.51,0,0,0-1.562,1.4,1.509,1.509,0,0,0,1.471,1.587A1.511,1.511,0,0,0-450.281,782.57Z" fill="#fbcd21"/>
    </g>
  </g>
</svg>
