<svg xmlns="http://www.w3.org/2000/svg" width="50" height="43.75" viewBox="0 0 50 43.75">
  <g id="Group_5223" data-name="Group 5223" transform="translate(-535 -2522)">
    <g id="Group_5171" data-name="Group 5171" transform="translate(-2114.957 2334.636)">
      <path id="Path_14053" data-name="Path 14053" d="M2649.957,242.81a9.231,9.231,0,0,1,.352-.991,3.591,3.591,0,0,1,3.3-2.147c.938-.034,1.879-.006,2.827-.035a6.763,6.763,0,0,1-4.473-2.739,6.531,6.531,0,0,1-1.161-5.084,6.664,6.664,0,0,1,13.208.777,6.79,6.79,0,0,1-5.714,7.074c.783,0,1.567.021,2.349,0a3.8,3.8,0,0,1,3.419,1.559,3.51,3.51,0,0,1,.687,1.979c.02.555.02,1.11,0,1.665a1.477,1.477,0,0,1-2.953-.015c-.012-.462,0-.925-.005-1.387a.746.746,0,0,0-.829-.832q-3.608-.009-7.215,0a.745.745,0,0,0-.834.827c-.009.431,0,.863,0,1.295a1.481,1.481,0,0,1-2.865.616,1.428,1.428,0,0,0-.094-.15Zm11.1-9.775a3.7,3.7,0,1,0-3.747,3.668A3.705,3.705,0,0,0,2661.059,233.035Z" transform="translate(0 -15.217)" fill="#f7d75a"/>
      <path id="Path_14054" data-name="Path 14054" d="M2673.094,200.687c.878,0,1.757,0,2.635,0a3.7,3.7,0,0,1,3.818,3.83c0,.447.01.894,0,1.342a1.478,1.478,0,1,1-2.956-.008c-.011-.463.006-.925,0-1.388a.736.736,0,0,0-.8-.811q-3.632-.011-7.263,0a.735.735,0,0,0-.812.8c-.012.463,0,.925,0,1.388a1.477,1.477,0,1,1-2.953-.016,13.262,13.262,0,0,1,.082-2.12,3.623,3.623,0,0,1,3.534-3.011c.953-.019,1.907,0,2.86-.021a6.6,6.6,0,1,1,1.87.015Zm-.954-10.362a3.7,3.7,0,1,0,3.7,3.66A3.706,3.706,0,0,0,2672.141,190.325Z" transform="translate(-5.988)" fill="#f7d75a"/>
      <path id="Path_14055" data-name="Path 14055" d="M2702.64,200.687h2.432a3.733,3.733,0,0,1,4.045,4.066c0,.37.008.74,0,1.11a1.478,1.478,0,1,1-2.956-.017c-.01-.462.006-.925-.005-1.387a.736.736,0,0,0-.806-.807q-3.631-.011-7.262,0a.734.734,0,0,0-.808.8c-.012.447,0,.894,0,1.342a1.479,1.479,0,1,1-2.955.021,13.236,13.236,0,0,1,.084-2.12,3.623,3.623,0,0,1,3.537-3.008c.951-.018,1.9,0,2.854-.022a6.608,6.608,0,1,1,1.848.017Zm-.9-2.962a3.7,3.7,0,1,0-3.724-3.64A3.713,3.713,0,0,0,2701.739,197.725Z" transform="translate(-17.962 0)" fill="#f7d75a"/>
      <path id="Path_14056" data-name="Path 14056" d="M2686,239.668a6.792,6.792,0,0,1-5.721-7.172,6.663,6.663,0,0,1,13.284-.033,6.761,6.761,0,0,1-5.7,7.2h2.457a3.723,3.723,0,0,1,4.012,4.006c0,.385.007.771,0,1.156a1.478,1.478,0,1,1-2.957.011c-.011-.447,0-.894,0-1.341-.009-.583-.274-.867-.84-.868q-3.609-.008-7.216,0a.745.745,0,0,0-.823.838c-.009.463.008.925-.006,1.388a1.475,1.475,0,0,1-2.95,0,12.959,12.959,0,0,1,.08-2.166,3.624,3.624,0,0,1,3.572-3.022C2684.123,239.656,2685.063,239.668,2686,239.668Zm-2.775-6.654a3.7,3.7,0,1,0,3.7-3.709A3.706,3.706,0,0,0,2683.228,233.013Z" transform="translate(-11.973 -15.219)" fill="#f7d75a"/>
      <path id="Path_14057" data-name="Path 14057" d="M2715.578,239.667a6.742,6.742,0,0,1-5.689-7.453,6.658,6.658,0,0,1,13.248.253,6.761,6.761,0,0,1-5.709,7.2h2.511a3.716,3.716,0,0,1,3.961,3.965c0,.416.011.833,0,1.249a1.476,1.476,0,0,1-2.952,0c-.016-.462,0-.925-.006-1.387-.008-.58-.275-.862-.846-.863q-3.584-.008-7.169,0c-.6,0-.858.279-.865.891,0,.447.009.895,0,1.342a1.475,1.475,0,0,1-2.951-.008,13.064,13.064,0,0,1,.081-2.166,3.62,3.62,0,0,1,3.53-3.015C2713.668,239.652,2714.623,239.667,2715.578,239.667Zm.917-10.365a3.7,3.7,0,1,0,3.7,3.662A3.706,3.706,0,0,0,2716.5,229.3Z" transform="translate(-23.948 -15.218)" fill="#f7d75a"/>
      <path id="Path_14058" data-name="Path 14058" d="M2676.982,225.269a1.479,1.479,0,1,1,1.472-1.475A1.492,1.492,0,0,1,2676.982,225.269Z" transform="translate(-10.644 -14.554)" fill="#f7d75a"/>
    </g>
  </g>
</svg>
