<svg xmlns="http://www.w3.org/2000/svg" width="23.973" height="22.156" viewBox="0 0 23.973 22.156">
  <g id="Group_7308" data-name="Group 7308" transform="translate(-578.513 -1096)">
    <g id="Group_7270" data-name="Group 7270" transform="translate(0 -66)">
      <path id="Path_12797" data-name="Path 12797" d="M88.127,108.631a5.183,5.183,0,0,0-1.188-.738c-.41-.2-3.422-1.679-3.989-1.882-.485-.174-1.034-.371-1.526.361-.374.554-1.469,1.832-1.825,2.234-.25.285-.479.378-1.033.1a20,20,0,0,1-4.627-2.829,17.032,17.032,0,0,1-3.192-3.947c-.255-.429-.089-.628.225-.942.193-.189,1.042-1.217,1.11-1.316.136-.207.378-.7.378-.7a1.256,1.256,0,0,0-.045-1.182c-.1-.191-1.643-3.912-1.79-4.262-.441-1.052-.91-1.106-1.36-1.08-.219.015-2.263.031-2.914.737l-.115.122a6.488,6.488,0,0,0-1.97,4.806,7.384,7.384,0,0,0,.307,2.014,13.129,13.129,0,0,0,2.1,4.062c.021.028,1.517,2.1,2.265,2.966a20.483,20.483,0,0,0,7.733,5.79c3.445,1.347,4.915,1.654,5.75,1.654a12.221,12.221,0,0,0,1.3-.2c1.052-.094,3.554-1.4,4.079-2.862A4.76,4.76,0,0,0,88.127,108.631Z" transform="translate(514.248 1069.557)" fill="#fbcd21"/>
    </g>
  </g>
</svg>
