<svg xmlns="http://www.w3.org/2000/svg" width="43.141" height="42.977" viewBox="0 0 43.141 42.977">
  <g id="Group_7321" data-name="Group 7321" transform="translate(-938 -844)">
    <g id="Group_7319" data-name="Group 7319" transform="translate(1396.219 -218.731)">
      <path id="Path_23980" data-name="Path 23980" d="M-415.078,1098.719a8.741,8.741,0,0,1-4.486,5.565,11.071,11.071,0,0,1-6.571,1.376,28.138,28.138,0,0,1-12.452-4.518,50.325,50.325,0,0,1-9.976-8.433,52.016,52.016,0,0,1-6.533-8.182,19.1,19.1,0,0,1-2.913-7.2,14.631,14.631,0,0,1,3.879-12.879,4.918,4.918,0,0,1,3.75-1.715,4.154,4.154,0,0,1,2.943,1.161c2.192,2.159,4.383,4.317,6.523,6.528a4.521,4.521,0,0,1-.088,6.194c-.728.781-1.5,1.523-2.26,2.269a.436.436,0,0,0-.106.633,27.882,27.882,0,0,0,11.565,11.561.436.436,0,0,0,.634-.1c.674-.7,1.363-1.379,2.053-2.059a4.576,4.576,0,0,1,6.747.015c1.7,1.694,3.382,3.414,5.1,5.091a6.44,6.44,0,0,1,2.189,3.342Zm-9.787,4.32c.4-.06,1.075-.15,1.749-.272a7.341,7.341,0,0,0,4.92-3.383,2,2,0,0,0-.275-2.766c-1.962-1.89-3.863-3.844-5.79-5.771a1.924,1.924,0,0,0-2.99.013c-.836.833-1.668,1.67-2.5,2.5a2.133,2.133,0,0,1-2.658.442,34.554,34.554,0,0,1-6.486-4.359,31.735,31.735,0,0,1-7.155-9.234,2.158,2.158,0,0,1,.429-2.762c.844-.845,1.7-1.681,2.533-2.533a1.912,1.912,0,0,0-.009-2.9q-2.993-3-5.991-5.99a1.837,1.837,0,0,0-2.583-.156,8.106,8.106,0,0,0-1.335,1.338,12.246,12.246,0,0,0-2.153,10.555,20.237,20.237,0,0,0,3.53,7.116,62.387,62.387,0,0,0,9.367,10.182,35.5,35.5,0,0,0,9.392,6.089A21.6,21.6,0,0,0-424.865,1103.039Z" transform="translate(0)" fill="#fbcd21"/>
      <path id="Path_23981" data-name="Path 23981" d="M-426.913,1078.238a1.4,1.4,0,0,1-1.2,1.533,1.373,1.373,0,0,1-1.483-1.194c-.959-5.173-4.028-8.5-8.951-10.187a10.52,10.52,0,0,0-1.517-.331,1.369,1.369,0,0,1-1.16-1.543,1.375,1.375,0,0,1,1.577-1.119,15.5,15.5,0,0,1,12.535,11.7C-427.014,1077.52-426.961,1077.953-426.913,1078.238Z" transform="translate(7.952 1.241)" fill="#fbcd21"/>
      <path id="Path_23982" data-name="Path 23982" d="M-440.547,1069.213a7.734,7.734,0,0,1,2.636.835,10.75,10.75,0,0,1,5.872,7.235,2.775,2.775,0,0,1,.1.955,1.333,1.333,0,0,1-1.333,1.167,1.358,1.358,0,0,1-1.323-1.181,8.166,8.166,0,0,0-5.9-6.274c-.176-.043-.358-.059-.534-.1a1.363,1.363,0,0,1-1.048-1.468A1.387,1.387,0,0,1-440.547,1069.213Z" transform="translate(7.552 3.036)" fill="#fbcd21"/>
    </g>
  </g>
</svg>
