<svg xmlns="http://www.w3.org/2000/svg" width="42.063" height="42.02" viewBox="0 0 42.063 42.02">
  <g id="Group_5201" data-name="Group 5201" transform="translate(0 -0.277)">
    <g id="Group_5100" data-name="Group 5100" transform="translate(0 0.277)">
      <path id="Path_14012" data-name="Path 14012" d="M3487.467-154.6a6.259,6.259,0,0,1-.637.616q-8.238,6.016-16.482,12.024a1.436,1.436,0,0,1-1.183.274q-7.078-1.2-14.161-2.369a3.519,3.519,0,0,0-.573-.033q-3.963,0-7.927,0c-.836,0-1.1-.266-1.1-1.11q0-4.661,0-9.322c0-.8.267-1.066,1.055-1.066,2.615,0,5.23.006,7.845-.012a1.108,1.108,0,0,0,.683-.262,8.748,8.748,0,0,1,4.479-2.348,8.215,8.215,0,0,1,7.211,2.108,2.43,2.43,0,0,0,1.816.687c1.012-.037,2.027.026,3.039-.018a3.548,3.548,0,0,1,3.4,1.63l.93-.611c1.2-.792,2.388-1.6,3.6-2.374a5.774,5.774,0,0,1,7.681,1.229c.118.148.218.31.327.466Zm-40.4,8.869h.474q3.491,0,6.981,0a3.258,3.258,0,0,1,.532.022q6.979,1.159,13.959,2.316a.987.987,0,0,0,.672-.141q7.709-5.589,15.4-11.205c.105-.077.206-.161.321-.251a1.887,1.887,0,0,0-.133-.139,2.752,2.752,0,0,0-.258-.2,4.007,4.007,0,0,0-4.6-.107c-1.637,1.018-3.228,2.111-4.83,3.184a.64.64,0,0,0-.245.385,3.28,3.28,0,0,1-3.465,2.933q-4.7,0-9.4,0a2.109,2.109,0,0,1-.409-.021.8.8,0,0,1-.655-.863.792.792,0,0,1,.734-.751c.136-.014.273-.007.41-.007q4.7,0,9.4,0a1.649,1.649,0,0,0,1.762-1.61,1.641,1.641,0,0,0-1.774-1.592c-1.246,0-2.492-.009-3.737,0a3.451,3.451,0,0,1-2.366-.878c-.218-.188-.432-.379-.655-.561a6.651,6.651,0,0,0-8.314-.073c-.4.313-.778.649-1.153.988a1.351,1.351,0,0,1-.966.363c-2.409-.011-4.819-.006-7.228-.006h-.46Z" transform="translate(-3445.405 183.68)" fill="#fbcd21"/>
      <path id="Path_14013" data-name="Path 14013" d="M3533.252-305.96a4.236,4.236,0,0,1,.633.616c1.363,2.018,2.707,4.047,4.058,6.073.083.124.169.245.266.383l4.9-3.267c.535-.357,1.073-.709,1.6-1.074a.905.905,0,0,1,1.1-.129.908.908,0,0,1,.324,1.06q-.7,3.6-1.409,7.2c-.337,1.717-.729,3.425-.992,5.153a18.552,18.552,0,0,0-.047,2.7c0,1.356-.124,1.48-1.47,1.48h-18.727c-.924,0-1.2-.243-1.156-1.168a24.381,24.381,0,0,0-.62-6.14c-.622-3.068-1.176-6.149-1.76-9.224a.912.912,0,0,1,.349-1.086.885.885,0,0,1,1.029.118q3.052,2.044,6.111,4.076c.136.091.274.179.438.286.09-.128.177-.246.258-.368,1.321-1.98,2.637-3.963,3.966-5.937a8.2,8.2,0,0,1,.654-.76Zm10.927,5.077c-.192.122-.331.207-.466.3q-2.544,1.7-5.087,3.392c-.657.437-1.031.358-1.471-.3q-1.925-2.884-3.849-5.77c-.079-.119-.168-.231-.27-.37-.108.157-.194.279-.276.4q-1.913,2.868-3.825,5.735c-.442.661-.816.738-1.471.3q-2.578-1.717-5.156-3.436c-.115-.077-.233-.149-.415-.264l1.935,10.209h.483c1.643,0,3.286,0,4.928,0a.887.887,0,0,1,.867.433.826.826,0,0,1-.833,1.21c-1.615.007-3.231,0-4.846,0H3524v1.62h18.012v-1.62h-4.87c-.1,0-.192,0-.287,0a.839.839,0,0,1-.89-.822.819.819,0,0,1,.888-.817c1.629-.006,3.258,0,4.887,0h.445C3542.853-294.095,3543.51-297.458,3544.179-300.883Z" transform="translate(-3507.127 305.96)" fill="#fbcd21"/>
      <path id="Path_14014" data-name="Path 14014" d="M3592.741-216.919a.82.82,0,0,1,.817.836.832.832,0,0,1-.818.8.832.832,0,0,1-.817-.84A.82.82,0,0,1,3592.741-216.919Z" transform="translate(-3566.781 232.198)" fill="#fbcd21"/>
    </g>
  </g>
</svg>
