<svg xmlns="http://www.w3.org/2000/svg" width="32.162" height="24.666" viewBox="0 0 32.162 24.666">
  <path id="Path_12093" data-name="Path 12093" d="M23.417,11.456l1.612,2.482c-6.017,3.257-5.912,8.484-5.912,9.61a7.913,7.913,0,0,1,1.731-.032,6.313,6.313,0,0,1-.494,12.607A6.969,6.969,0,0,1,15.4,33.994a10.3,10.3,0,0,1-2.857-7.773C12.542,19.908,16.971,14.252,23.417,11.456Zm18.036,0,1.612,2.482c-6.017,3.257-5.912,8.484-5.912,9.61a7.913,7.913,0,0,1,1.731-.032,6.313,6.313,0,0,1-.494,12.607,6.969,6.969,0,0,1-4.956-2.128,10.3,10.3,0,0,1-2.857-7.773c0-6.313,4.43-11.969,10.876-14.764Z" transform="translate(-12.542 -11.457)" fill="#fbcd21"/>
</svg>
