<svg xmlns="http://www.w3.org/2000/svg" width="67.287" height="67.279" viewBox="0 0 67.287 67.279">
  <g id="Group_4767" data-name="Group 4767" transform="translate(-2495.89 68.302)">
    <path id="Path_13022" data-name="Path 13022" d="M2622.527-60.877c2.157-2.171,4.057-4.1,5.973-6.007s3.631-1.89,5.554.024q4.044,4.025,8.068,8.069c1.847,1.857,1.854,3.619.023,5.462-1.937,1.948-3.891,3.879-5.826,5.806,2.636,3.251,2.629,3.36-.3,6.29-.834.835-1.656,1.683-2.507,2.5-1.253,1.206-2.286,1.238-3.733.26a1.5,1.5,0,0,0-1.138-.153,13.631,13.631,0,0,0-5.8,3.434q-2.111,2.155-4.27,4.262c-1.788,1.745-3.781,1.763-5.55.023q-3.508-3.448-6.956-6.956a3.585,3.585,0,0,1,.035-5.455c1.311-1.348,2.63-2.688,3.991-3.985a13.806,13.806,0,0,0,3.685-5.949,1.969,1.969,0,0,0-.234-1.466,2.484,2.484,0,0,1,.186-3.344q2.029-2.142,4.173-4.172a2.378,2.378,0,0,1,3.6.066A12.669,12.669,0,0,1,2622.527-60.877Zm12.791,16.5-15.65-15.661-3.9,3.965c1.126,1.079,2.365,2.247,3.579,3.439a1.211,1.211,0,0,1,.108,1.86,1.245,1.245,0,0,1-1.959-.043,9.645,9.645,0,0,1-.948-1.381l-.459.228c-1.111,3.824-3.937,6.345-6.61,8.984q-.513.507-1.021,1.02c-1.34,1.345-1.339,1.443.043,2.829s2.783,2.782,4.175,4.173c3.1,3.1,3.139,3.136,6.156.031,2.392-2.462,4.861-4.782,8.163-5.99.047-.017.057-.137.131-.332-.257-.227-.556-.482-.845-.747-.683-.625-1.088-1.371-.362-2.155.807-.87,1.563-.4,2.232.307,1.077,1.139,2.162,2.27,3.214,3.373Zm-.83-5c1.977-1.983,4-3.968,5.946-6.023a1.318,1.318,0,0,0,.018-1.287q-4.192-4.327-8.516-8.526a1.246,1.246,0,0,0-1.191-.129c-2.094,2.01-4.123,4.087-6.08,6.056Z" transform="translate(-80.335)" fill="#fbcd21"/>
    <path id="Path_13023" data-name="Path 13023" d="M2503.085,62.6a2.917,2.917,0,0,0-.214-.356c-2.942-3.245-2.918-4.5.15-7.568q3.479-3.479,6.961-6.957c2.124-2.113,4.166-2.132,6.256-.046q7.711,7.692,15.405,15.4c1.988,1.993,2,4.087.029,6.071q-3.788,3.821-7.606,7.611c-2.362,2.359-4.242,2.365-6.634.028-.186-.182-.377-.359-.922-.875-.639.789-1.217,1.6-1.9,2.321-1.3,1.363-2.631,2.689-3.985,3.995a3.279,3.279,0,0,1-4.992-.032q-4.295-4.241-8.538-8.535a3.286,3.286,0,0,1-.009-5.082C2499.078,66.559,2501.1,64.575,2503.085,62.6Zm27.518,3.507a7.953,7.953,0,0,0-.773-1.11q-7.779-7.807-15.577-15.6a1.355,1.355,0,0,0-2.235,0q-3.964,4.014-7.982,7.975a1.353,1.353,0,0,0-.055,2.233q7.855,7.824,15.682,15.676a1.31,1.31,0,0,0,2.139.009c2.683-2.7,5.384-5.378,8.061-8.082A7.161,7.161,0,0,0,2530.6,66.109Zm-25.743-1.591c-1.889,1.889-3.852,3.873-5.842,5.831a.915.915,0,0,0,0,1.538q4.189,4.147,8.338,8.336c.541.546.98.6,1.54.029,1.962-1.988,3.948-3.951,5.88-5.878Z" transform="translate(0 -84.386)" fill="#fbcd21"/>
    <path id="Path_13024" data-name="Path 13024" d="M2678.326,116.734c-.253.309-.476.811-.846.97a1.484,1.484,0,0,1-1.306-.1c-1.537-1.422-3.039-2.891-4.431-4.452a1.686,1.686,0,0,1,.092-1.6,1.5,1.5,0,0,1,1.457-.256c1.646,1.49,3.188,3.1,4.746,4.68C2678.175,116.119,2678.194,116.375,2678.326,116.734Z" transform="translate(-129.567 -132.379)" fill="#fbcd21"/>
    <path id="Path_13025" data-name="Path 13025" d="M2550.212-14.063a7.3,7.3,0,0,1,1.185.747c1.285,1.241,2.536,2.516,3.8,3.78.646.647.835,1.379.136,2.057-.653.635-1.358.427-1.96-.17-1.3-1.289-2.636-2.544-3.852-3.908a2.19,2.19,0,0,1-.353-1.622C2549.219-13.506,2549.814-13.747,2550.212-14.063Z" transform="translate(-39.27 -40)" fill="#fbcd21"/>
    <path id="Path_13026" data-name="Path 13026" d="M2690.5,92.179c2.131.582,4.038,1.033,5.882,1.67a1.26,1.26,0,0,1-.756,2.346,41.139,41.139,0,0,1-5.412-1.439,1.678,1.678,0,0,1-.763-1.413C2689.5,92.907,2690.149,92.54,2690.5,92.179Z" transform="translate(-142.743 -118.351)" fill="#fbcd21"/>
    <path id="Path_13027" data-name="Path 13027" d="M2581.748-28.341c-.333.33-.674.951-1.075.993-.479.05-1.342-.283-1.463-.644a42.615,42.615,0,0,1-1.455-5.532,1.619,1.619,0,0,1,.9-1.313,1.616,1.616,0,0,1,1.452.645C2580.737-32.348,2581.18-30.441,2581.748-28.341Z" transform="translate(-60.368 -24.664)" fill="#fbcd21"/>
    <path id="Path_13028" data-name="Path 13028" d="M2657.1,135.8c-.314.32-.661.968-1.105,1.044a1.664,1.664,0,0,1-1.448-.669,42.776,42.776,0,0,1-1.423-5.549,1.226,1.226,0,0,1,2.342-.607C2656.089,131.822,2656.525,133.69,2657.1,135.8Z" transform="translate(-115.952 -145.735)" fill="#fbcd21"/>
    <path id="Path_13029" data-name="Path 13029" d="M2528.258,15.139c2.111.569,3.977,1,5.778,1.618a1.618,1.618,0,0,1,.649,1.451,1.621,1.621,0,0,1-1.292.93,42.577,42.577,0,0,1-5.527-1.473,1.664,1.664,0,0,1-.664-1.446C2527.273,15.789,2527.925,15.454,2528.258,15.139Z" transform="translate(-23.084 -61.536)" fill="#fbcd21"/>
    <path id="Path_13030" data-name="Path 13030" d="M2639.357,34.568c.042,1.127-1.1,1.884-1.9,1.252a18.292,18.292,0,0,1-2.851-2.869,1.594,1.594,0,0,1,.185-1.488,1.425,1.425,0,0,1,1.36-.29,42.886,42.886,0,0,1,3.08,3.009C2639.338,34.291,2639.338,34.505,2639.357,34.568Z" transform="translate(-102.214 -73.301)" fill="#fbcd21"/>
    <path id="Path_13031" data-name="Path 13031" d="M2669.778,5.345c.339.515,1,1.074.93,1.531a1.854,1.854,0,0,1-1.314,1.163c-.33.051-1.1-.744-1.112-1.174-.012-.5.59-1.015.926-1.524Z" transform="translate(-127.134 -54.309)" fill="#fbcd21"/>
    <path id="Path_13032" data-name="Path 13032" d="M2554.209,91.856a5.929,5.929,0,0,1-1.041-.655q-5.31-5.273-10.594-10.572a1.4,1.4,0,0,1,.057-2.27q1.962-1.937,3.9-3.9a1.451,1.451,0,0,1,2.369.028q5.14,5.165,10.31,10.3a1.5,1.5,0,0,1,.028,2.468c-1.286,1.251-2.529,2.546-3.82,3.792A8.222,8.222,0,0,1,2554.209,91.856Zm2.38-5.694-8.964-8.991-2.2,2.157,8.949,9.039Z" transform="translate(-34.022 -104.841)" fill="#fbcd21"/>
  </g>
</svg>
