<svg xmlns="http://www.w3.org/2000/svg" width="12.242" height="13.925" viewBox="0 0 12.242 13.925">
  <g id="Group_7523" data-name="Group 7523" transform="translate(-1359 -844)">
    <path id="Path_24005" data-name="Path 24005" d="M2114.344,658.636c.165.042.334.072.5.126a2.445,2.445,0,0,1-.357,4.734,2.393,2.393,0,0,1-1.96-.52c-.05-.039-.1-.081-.148-.125l-2.611,1.618a2.888,2.888,0,0,1,0,2.257l2.609,1.617a2.449,2.449,0,1,1-.487.658l-2.545-1.577a2.837,2.837,0,0,1-2.448,1.016,2.754,2.754,0,0,1-1.937-1.007,2.858,2.858,0,1,1,4.387-3.663l2.529-1.566c-.067-.221-.148-.427-.192-.642a2.442,2.442,0,0,1,2.05-2.9.419.419,0,0,0,.074-.025Z" transform="translate(-745.28 185.364)" fill="#fff"/>
  </g>
</svg>
