<svg xmlns="http://www.w3.org/2000/svg" width="41.799" height="39.185" viewBox="0 0 41.799 39.185">
  <g id="Group_5199" data-name="Group 5199" transform="translate(0 -5.128)">
    <g id="Group_5098" data-name="Group 5098" transform="translate(0 5.128)">
      <path id="Path_14005" data-name="Path 14005" d="M3301.049,1212.154v29.879a.353.353,0,0,0-.064.1,3.906,3.906,0,0,1-4.086,3.248q-16.755,0-33.509,0a3.923,3.923,0,0,1-4.138-4.113q0-14.183,0-28.367a3.918,3.918,0,0,1,4.075-4.093c1.646,0,3.292,0,4.939,0h.455c0-.434,0-.813,0-1.192a1.31,1.31,0,1,1,2.611,0c0,.389,0,.779,0,1.163h17.633c0-.411,0-.791,0-1.171a1.31,1.31,0,1,1,2.611.018c0,.388,0,.777,0,1.184h.5c1.7,0,3.4-.012,5.1.005a3.9,3.9,0,0,1,3.666,2.689C3300.922,1211.718,3300.983,1211.937,3301.049,1212.154Zm-39.186,6.468v.414q0,11.1,0,22.2a1.344,1.344,0,0,0,1.525,1.528H3296.9c1.053,0,1.541-.491,1.541-1.553q0-11.081,0-22.162v-.431Zm6.857-7.2c-1.92,0-3.782-.015-5.644.008a1.262,1.262,0,0,0-1.211,1.3c-.012.68,0,1.36,0,2.04,0,.4,0,.8,0,1.2h36.573c0-1.047,0-2.066,0-3.084a1.327,1.327,0,0,0-1.471-1.458q-2.488,0-4.977,0c-.13,0-.26.011-.409.019,0,.419,0,.8,0,1.177a1.31,1.31,0,1,1-2.611-.009c0-.389,0-.777,0-1.157h-17.634c0,.438.007.845,0,1.251a1.3,1.3,0,1,1-2.609-.016C3268.715,1212.28,3268.721,1211.874,3268.721,1211.423Z" transform="translate(-3259.25 -1206.196)" fill="#fbcd21"/>
      <path id="Path_14006" data-name="Path 14006" d="M3296.52,1261.883l1.574-2.059q3.939-5.153,7.875-10.309a1.318,1.318,0,0,1,1.412-.591,1.29,1.29,0,0,1,.692,2.1c-.922,1.229-1.86,2.447-2.791,3.669q-3.733,4.9-7.467,9.8a1.343,1.343,0,0,1-2.318.13q-2.319-2.469-4.632-4.943a1.311,1.311,0,1,1,1.89-1.8c1.15,1.216,2.289,2.441,3.433,3.662C3296.289,1261.647,3296.393,1261.751,3296.52,1261.883Z" transform="translate(-3278.496 -1232.56)" fill="#fbcd21"/>
    </g>
  </g>
</svg>
