<svg xmlns="http://www.w3.org/2000/svg" width="35" height="35.064" viewBox="0 0 35 35.064">
  <g id="Group_7180" data-name="Group 7180" transform="translate(-89.705 -426)">
    <path id="Path_23873" data-name="Path 23873" d="M106.555,466.557c-.265-.057-.531-.105-.793-.175a4.69,4.69,0,0,1-3.525-4.709,8.318,8.318,0,0,1,4.773-7.5c.08-.042.162-.081.241-.124.007,0,.009-.019.013-.029a4.756,4.756,0,1,1,6.812-.031,20.592,20.592,0,0,1,1.883,1.257,8.157,8.157,0,0,1,3.1,6.936,4.716,4.716,0,0,1-4.01,4.3,2.576,2.576,0,0,0-.293.071Zm4.066-2.093v-.011c1.309,0,2.619.029,3.927-.009a2.525,2.525,0,0,0,2.394-2.068,4.936,4.936,0,0,0,.007-1.457,6.36,6.36,0,0,0-7.629-5.364,6.433,6.433,0,0,0-5.018,5.664,2.764,2.764,0,0,0,2.938,3.258C108.363,464.414,109.493,464.464,110.62,464.464Zm.03-11.12a2.674,2.674,0,1,0-2.663-2.677A2.674,2.674,0,0,0,110.65,453.344Z" transform="translate(-3.449 -5.493)" fill="#030519"/>
    <path id="Path_23874" data-name="Path 23874" d="M112.1,426a1.9,1.9,0,0,1,.878.768c.062.095.15.175.205.273a3.529,3.529,0,0,0,2.468,1.792,4.157,4.157,0,0,1,.738.262,1.019,1.019,0,0,1,.488,1.553c-.359.554-.76,1.083-1.108,1.644a1.63,1.63,0,0,0-.231.721c-.041.58-.043,1.163-.038,1.745a1.086,1.086,0,0,1-1.53,1.116c-.42-.169-.882-.23-1.3-.4a2.015,2.015,0,0,0-1.544,0c-.444.17-.911.28-1.37.412a1.04,1.04,0,0,1-1.451-1.029c-.032-.638-.012-1.278-.05-1.916a1.375,1.375,0,0,0-.207-.625c-.335-.529-.7-1.036-1.056-1.555a1.044,1.044,0,0,1,.573-1.728c.535-.191,1.066-.395,1.609-.562a1.389,1.389,0,0,0,.775-.562c.272-.393.588-.755.865-1.146a2.025,2.025,0,0,1,.879-.767Zm-1.775,7.565a3.444,3.444,0,0,1,3.207.062,3.15,3.15,0,0,1,.988-3.074,3.22,3.22,0,0,1-2.624-1.905,3.269,3.269,0,0,1-2.612,1.914A3.3,3.3,0,0,1,110.321,433.565Z" transform="translate(-4.684)" fill="#030519"/>
    <path id="Path_23875" data-name="Path 23875" d="M134.077,439.175c-.467.683-.937,1.364-1.4,2.052a.708.708,0,0,0-.11.345c-.03.7-.051,1.391-.067,2.087a1.037,1.037,0,0,1-1.392,1.039c-.634-.178-1.259-.389-1.9-.559a1.192,1.192,0,0,0-.587,0c-.626.164-1.243.362-1.865.541a1.04,1.04,0,0,1-1.437-1.075c-.014-.685-.034-1.37-.068-2.053a.774.774,0,0,0-.14-.37c-.372-.559-.76-1.109-1.135-1.668a1.033,1.033,0,0,1,.545-1.667c.609-.222,1.225-.423,1.827-.661a1.3,1.3,0,0,0,.5-.37c.4-.494.78-1.01,1.17-1.516a1.037,1.037,0,0,1,1.776,0c.279.36.584.705.825,1.09a2.152,2.152,0,0,0,1.356.992c.372.094.725.264,1.1.372a1.48,1.48,0,0,1,1,.8Zm-7.8.184a3.27,3.27,0,0,1,1.04,3.068,3.228,3.228,0,0,1,3.2-.014,3.229,3.229,0,0,1,.952-3,7.217,7.217,0,0,1-1.523-.645,7.306,7.306,0,0,1-1.086-1.255A3.178,3.178,0,0,1,126.28,439.359Z" transform="translate(-9.372 -2.423)" fill="#030519"/>
    <path id="Path_23876" data-name="Path 23876" d="M100.086,438.882a4.555,4.555,0,0,1-.289.636c-.366.563-.76,1.109-1.131,1.669a.849.849,0,0,0-.141.4c-.033.694-.051,1.39-.068,2.086a1.033,1.033,0,0,1-1.373,1.025c-.634-.174-1.259-.388-1.9-.556a1.274,1.274,0,0,0-.618,0c-.626.162-1.241.364-1.863.542a1.04,1.04,0,0,1-1.425-1.06c-.014-.685-.035-1.369-.067-2.052a.782.782,0,0,0-.129-.372c-.377-.57-.771-1.128-1.152-1.7a1.028,1.028,0,0,1,.53-1.648c.629-.23,1.265-.441,1.891-.68a1.064,1.064,0,0,0,.425-.312c.408-.505.794-1.028,1.189-1.543a1.046,1.046,0,0,1,1.816.011c.271.352.57.687.8,1.062a2.186,2.186,0,0,0,1.356.991,14.971,14.971,0,0,1,1.413.495A1.129,1.129,0,0,1,100.086,438.882Zm-2.69.5a3.357,3.357,0,0,1-2.534-1.947,3.207,3.207,0,0,1-2.609,1.922,3.323,3.323,0,0,1,1.02,3.073,3.234,3.234,0,0,1,3.218,0A3.357,3.357,0,0,1,97.4,439.378Z" transform="translate(0 -2.423)" fill="#030519"/>
  </g>
</svg>
