<svg xmlns="http://www.w3.org/2000/svg" width="15.981" height="15.27" viewBox="0 0 15.981 15.27">
  <g id="Group_4865" data-name="Group 4865" transform="translate(-1210 -6355)">
    <path id="XMLID_16_" d="M15.947,13.116a.726.726,0,0,0-.587-.494l-4.641-.674L8.643,7.741a.727.727,0,0,0-1.3,0L5.265,11.947l-4.641.674a.727.727,0,0,0-.4,1.239l3.358,3.273-.793,4.623a.727.727,0,0,0,1.054.766L7.992,20.34l4.151,2.182a.736.736,0,0,0,.34.083.727.727,0,0,0,.707-.889L12.4,17.134l3.358-3.273A.726.726,0,0,0,15.947,13.116Z" transform="translate(1209.998 6347.664)" fill="#e99400"/>
  </g>
</svg>
