<svg xmlns="http://www.w3.org/2000/svg" width="44.984" height="44.975" viewBox="0 0 44.984 44.975">
  <g id="Group_5239" data-name="Group 5239" transform="translate(-1269.398 22.333)">
    <path id="Path_14070" data-name="Path 14070" d="M1273.879,22.642c-.229-.228-.558-.418-.665-.694-.233-.6.249-1.159.965-1.168,1.288-.015,2.576-.005,3.865-.006h5.412v-.5c0-2.6-.006-5.211,0-7.816a5.611,5.611,0,0,1,4.791-5.679,2.865,2.865,0,0,1,.48-.044c2.035-.006,4.071-.051,6.1,0a5.563,5.563,0,0,1,5.489,5.636c.018,2.62,0,5.24,0,7.86v.542h8.97a4.177,4.177,0,0,1,.525.023.848.848,0,0,1,.767.68.867.867,0,0,1-.384.993c-.1.064-.2.115-.3.171h-14.585a1.31,1.31,0,0,1-.627-1.289c.041-1.037.009-2.077.015-3.116a2.073,2.073,0,0,1,.066-.562.909.909,0,0,1,1.769.13,8.83,8.83,0,0,1,.029.964c0,.653,0,1.306,0,1.976h1.846a1.189,1.189,0,0,0,.037-.192c0-2.722.044-5.445-.012-8.165a3.563,3.563,0,0,0-3.386-3.74c-2.1-.131-4.214-.092-6.317-.013a3.583,3.583,0,0,0-3.363,3.39c-.051,1.388-.043,2.779-.05,4.168s.008,2.78-.009,4.17c0,.333.1.44.424.417a8.923,8.923,0,0,1,1.1,0c.286.016.385-.081.379-.372q-.024-1.185,0-2.371a.943.943,0,0,1,.931-1.01.956.956,0,0,1,.928,1.022c.013.424,0,.848,0,1.273v1.454c.947,0,1.823-.009,2.7,0a.926.926,0,0,1,1.031.856c.04.448-.172.736-.742,1.008Z" fill="#eef9ff"/>
    <path id="Path_14071" data-name="Path 14071" d="M1269.4-.462a5.694,5.694,0,0,1,1.2-2.493,4.633,4.633,0,0,1,7,.057,8.153,8.153,0,0,1,.988,1.784c.112.25.207.329.461.328q2.5-.012,5.008,0a2.57,2.57,0,0,1,.607.064.882.882,0,0,1,.66.876.882.882,0,0,1-.66.877,2.57,2.57,0,0,1-.607.064q-2.505.007-5.008,0a.386.386,0,0,0-.454.332,4.657,4.657,0,0,1-4.891,3.39A4.714,4.714,0,0,1,1269.47.922a.738.738,0,0,0-.072-.154Zm7.475.637a2.793,2.793,0,0,0-2.789-2.83,2.835,2.835,0,0,0-2.809,2.787,2.837,2.837,0,0,0,2.809,2.83A2.794,2.794,0,0,0,1276.873.175Z" fill="#eef9ff"/>
    <path id="Path_14072" data-name="Path 14072" d="M1282.661-10.324c.362.336.735.664,1.087,1.013,1.028,1.019,2.049,2.047,3.073,3.071a.985.985,0,0,1,.3,1.111.772.772,0,0,1-.806.561,1.754,1.754,0,0,1-.9-.447c-1.252-1.208-2.474-2.449-3.7-3.684a2.78,2.78,0,0,1-.28-.4,4.776,4.776,0,0,1-4.043.605,4.611,4.611,0,0,1-2.584-1.994,4.644,4.644,0,0,1,.733-5.86,4.645,4.645,0,0,1,5.959-.413C1283.572-15.136,1284.02-12.81,1282.661-10.324ZM1275.972-13a2.815,2.815,0,0,0,2.787,2.843,2.837,2.837,0,0,0,2.82-2.777,2.816,2.816,0,0,0-2.8-2.831A2.791,2.791,0,0,0,1275.972-13Z" fill="#eef9ff"/>
    <path id="Path_14073" data-name="Path 14073" d="M1304.818-8.282a4.252,4.252,0,0,1-2.055-.59.421.421,0,0,0-.624.1c-1.252,1.272-2.509,2.54-3.793,3.779a1.5,1.5,0,0,1-.9.422.884.884,0,0,1-.7-1.374,2.549,2.549,0,0,1,.368-.432c1.218-1.223,2.434-2.449,3.664-3.66a.5.5,0,0,0,.122-.726,4.63,4.63,0,0,1,1.377-5.979,4.639,4.639,0,0,1,5.959.391,4.663,4.663,0,0,1,.784,5.821A4.778,4.778,0,0,1,1304.818-8.282Zm.186-7.481a2.817,2.817,0,0,0-2.8,2.784,2.844,2.844,0,0,0,2.819,2.824,2.818,2.818,0,0,0,2.791-2.84A2.793,2.793,0,0,0,1305-15.763Z" fill="#eef9ff"/>
    <path id="Path_14074" data-name="Path 14074" d="M1290.948-10.124c0-.819-.018-1.639.007-2.457a.507.507,0,0,0-.433-.6,4.684,4.684,0,0,1-3.255-5.214,4.7,4.7,0,0,1,4.909-3.926,4.757,4.757,0,0,1,4.177,3.243,4.563,4.563,0,0,1-1.466,4.984,7.72,7.72,0,0,1-1.713.935c-.272.117-.346.225-.344.494.01,1.609.005,3.218.005,4.827,0,.117,0,.234,0,.351-.03.681-.391,1.08-.963,1.069-.551-.012-.906-.406-.918-1.068C1290.936-8.369,1290.948-9.247,1290.948-10.124Zm.92-4.738a2.794,2.794,0,0,0,2.832-2.788,2.835,2.835,0,0,0-2.786-2.809,2.838,2.838,0,0,0-2.832,2.808A2.794,2.794,0,0,0,1291.868-14.862Z" fill="#eef9ff"/>
    <path id="Path_14075" data-name="Path 14075" d="M1302.173-.79c.834,0,1.668-.012,2.5.006a.458.458,0,0,0,.545-.392,4.689,4.689,0,0,1,5.231-3.293A4.7,4.7,0,0,1,1314.377.4a4.738,4.738,0,0,1-3.207,4.2,4.554,4.554,0,0,1-5.025-1.452,7.727,7.727,0,0,1-.947-1.755c-.117-.28-.256-.3-.483-.3q-2.479,0-4.96,0a2.807,2.807,0,0,1-.564-.054.87.87,0,0,1-.722-.867.831.831,0,0,1,.725-.9c.638-.064,1.283-.049,1.925-.062C1301.47-.8,1301.821-.79,1302.173-.79Zm4.736.921a2.794,2.794,0,0,0,2.789,2.831,2.835,2.835,0,0,0,2.809-2.786,2.836,2.836,0,0,0-2.808-2.831A2.8,2.8,0,0,0,1306.909.131Z" fill="#eef9ff"/>
    <path id="Path_14076" data-name="Path 14076" d="M1296.567.174a4.676,4.676,0,0,1-9.352-.041,4.676,4.676,0,0,1,9.352.041ZM1294.7.158a2.808,2.808,0,0,0-5.616-.009,2.808,2.808,0,0,0,5.616.009Z" fill="#eef9ff"/>
    <path id="Path_14077" data-name="Path 14077" d="M1290.975,12.3V10.458c.567,0,1.116-.009,1.664.013.069,0,.183.17.186.264.019.509.009,1.018.009,1.567Z" fill="#eef9ff"/>
  </g>
</svg>
