<svg xmlns="http://www.w3.org/2000/svg" width="57.006" height="55.688" viewBox="0 0 57.006 55.688">
  <g id="Group_4619" data-name="Group 4619" transform="translate(-119.691 -11.215)">
    <path id="Path_12880" data-name="Path 12880" d="M165.736,26.1c-10.107-2.766-21.767-2.2-31,3.032-8.929,5.062-14.41,16.877-10.091,26.677,4.208,9.548,17.037,12.268,26.312,10.654,9.469-1.648,17.227-9.079,20.436-17.93,2.84-7.832,2.017-17.233-2.8-24.113-5.194-7.414-14.184-9.167-22.574-7.066-10.793,2.7-22.674,11.4-25.775,22.5-3.577,12.8,11.077,20.027,21.642,19.941A37.709,37.709,0,0,0,173.092,42.1c4.012-6.692,5.355-15.027.472-21.622-8.7-11.745-29.494-12.1-39.665-2.355a21,21,0,0,0-5.96,12.2c-.144.968,1.335,1.384,1.479.408,2.69-18.123,25.7-22.523,39.148-13,7.493,5.3,8,14.184,4.123,21.924-6.22,12.439-21.132,19.806-34.8,18.427-7.251-.731-15.605-5.574-16.546-13.411-.8-6.649,4.367-12.8,8.922-16.958,8.069-7.357,21.6-13.351,31.961-7.218,8.029,4.751,10.363,15.354,8.7,23.94A26.245,26.245,0,0,1,149.9,65.1c-6.984,1.214-14.982-.576-20.359-5.286-6.094-5.336-5.779-14.134-2.351-20.882,6.681-13.151,25.507-14.807,38.142-11.35a.768.768,0,0,0,.408-1.479Z" fill="#fbcd21"/>
  </g>
</svg>
