<svg xmlns="http://www.w3.org/2000/svg" width="68.963" height="67.019" viewBox="0 0 68.963 67.019">
  <g id="Video_Classes" data-name="Video Classes" transform="translate(-2064.959 75.24)">
    <path id="Path_13021" data-name="Path 13021" d="M2133.922-19.494h-24.792v7.257h4.811v4.016h-29.02v-3.925h4.8v-7.262h-24.756V-75.24h68.963Zm-44.715-24.481c4.224,2.794,5.51,6.85,5.07,11.571h35.556V-47.075h-31.17V-71.2H2069v38.813h4.024c-.447-4.729.808-8.707,4.815-11.436-2.681-4.446-2.334-8.4.906-11.087a7.531,7.531,0,0,1,9.773.226C2091.576-51.887,2091.864-47.9,2089.206-43.975Zm21.979-13.757c-1.539-3.411-1.045-6.308,1.356-8.219a6.08,6.08,0,0,1,7.5-.005c2.4,1.906,2.9,4.814,1.351,8.238a9.925,9.925,0,0,1,4.278,6.112.883.883,0,0,0,.655.506c1.153.052,2.309.024,3.526.024v-20.1h-26.927v20.107c1.145,0,2.176.037,3.2-.024.28-.017.733-.286.785-.513A10.111,10.111,0,0,1,2111.186-57.732Zm-42.206,34.084h60.855v-4.5h-60.855Zm21.193-8.707c.356-3.52-.149-6.566-3.476-8.333a6.208,6.208,0,0,0-7.073.607c-2.6,1.973-2.855,4.751-2.483,7.726Zm14.712,13.015H2094.02V-12.3h10.864ZM2087-48.971a3.468,3.468,0,0,0-3.437-3.552,3.462,3.462,0,0,0-3.56,3.426,3.514,3.514,0,0,0,3.435,3.565A3.518,3.518,0,0,0,2087-48.971Zm34.508-2.185a5.37,5.37,0,0,0-5.324-3.927,5.213,5.213,0,0,0-5.065,3.927Zm-5.179-8.035a1.986,1.986,0,0,0,1.965-2.1,1.981,1.981,0,0,0-2.042-1.883,2.016,2.016,0,0,0-1.975,1.962A2.011,2.011,0,0,0,2116.332-59.191Z" fill="#fbcd21"/>
  </g>
</svg>
