<svg xmlns="http://www.w3.org/2000/svg" width="41" height="41.002" viewBox="0 0 41 41.002">
  <g id="Group_7292" data-name="Group 7292" transform="translate(422 -511.918)">
    <path id="Path_23958" data-name="Path 23958" d="M-422,533.871v-2.882c.026-.116.06-.23.077-.348.116-.8.185-1.615.347-2.409a20.541,20.541,0,0,1,25.04-15.7,20.525,20.525,0,0,1,15.339,22.7,20.021,20.021,0,0,1-4.744,10.519A20.147,20.147,0,0,1-397.9,552.6c-.718.13-1.444.213-2.165.318h-2.882c-.235-.032-.47-.069-.706-.1a20.158,20.158,0,0,1-9.739-3.7,20.194,20.194,0,0,1-8.289-13.086C-421.814,535.32-421.9,534.594-422,533.871Zm33-5.738a13.186,13.186,0,0,0-13.578-8.9,12.823,12.823,0,0,0-7.629,3.22,13.048,13.048,0,0,0-3.814,5.637.679.679,0,0,0,.157,0c1.434-.491,2.87-.98,4.3-1.483a1.1,1.1,0,0,0,.383-.27c.713-.7,1.41-1.421,2.132-2.112a.884.884,0,0,1,.552-.229q4.981-.02,9.964,0a.946.946,0,0,1,.586.243c.714.68,1.4,1.39,2.1,2.085a1.052,1.052,0,0,0,.342.264C-392.026,527.1-390.544,527.605-389,528.133Zm-12.5-1.714c-1.334,0-2.668-.008-4,.011a.913.913,0,0,0-.551.225c-.434.393-.847.811-1.246,1.242a.789.789,0,0,0-.208.479q-.02,3.46,0,6.92a.655.655,0,0,0,.165.417q1.259,1.286,2.546,2.546a.66.66,0,0,0,.414.174q2.881.016,5.761,0a.655.655,0,0,0,.414-.174q1.274-1.244,2.518-2.518a.763.763,0,0,0,.192-.484q.018-3.441,0-6.881a.793.793,0,0,0-.206-.479c-.4-.431-.811-.849-1.247-1.242a.913.913,0,0,0-.55-.225C-398.839,526.411-400.174,526.419-401.507,526.419Zm11.81-7.611a17.863,17.863,0,0,0-23.59-.007l1.656,1.653a15.714,15.714,0,0,1,20.276.007Zm-25.423,1.8a17.866,17.866,0,0,0,.024,23.645l1.6-1.6q-7.445-10.234-.011-20.437Zm27.238,23.658a17.924,17.924,0,0,0,0-23.634l-1.607,1.606q7.412,10.222-.013,20.4Zm-25.468,1.77c7.224,6.436,17.936,5.445,23.695-.057l-1.536-1.517a.421.421,0,0,0-.068-.056c-6.855,4.981-13.65,4.969-20.475.016Zm7.932-.923c-.271-1.567-.523-3.045-.789-4.52a1.049,1.049,0,0,0-.235-.521c-.893-.917-1.8-1.819-2.711-2.715a.834.834,0,0,0-.408-.208c-.875-.165-1.753-.318-2.63-.468-.646-.111-1.293-.213-2-.328A13.536,13.536,0,0,0-405.418,545.111Zm16.593-8.769c-1.406.243-2.73.462-4.047.706a2.046,2.046,0,0,0-.983.325c-.942.865-1.83,1.788-2.725,2.7a.906.906,0,0,0-.217.445c-.165.861-.314,1.726-.462,2.59-.112.647-.214,1.3-.33,2A13.542,13.542,0,0,0-388.824,536.342Zm-4.2-7.021V534.6l4.714-.811c0-.9.012-1.766-.013-2.629,0-.116-.179-.28-.31-.33-.607-.232-1.227-.433-1.843-.643C-391.32,529.9-392.161,529.617-393.027,529.32Zm-16.959,0c-1.536.526-3.029,1.033-4.518,1.553a.351.351,0,0,0-.187.259c-.013.876-.008,1.75-.008,2.655l4.714.81Zm6.307,11.585c.259,1.513.508,2.994.779,4.47a.418.418,0,0,0,.31.247c.679.024,1.36,0,2.039.023.322.011.44-.111.487-.416.113-.764.258-1.522.386-2.283.113-.674.223-1.35.336-2.041Z" transform="translate(0 0)" fill="#323232"/>
    <path id="Path_23959" data-name="Path 23959" d="M-404.483,525.813a3.589,3.589,0,0,1,3.584,3.627,3.592,3.592,0,0,1-3.659,3.592,3.594,3.594,0,0,1-3.564-3.648A3.591,3.591,0,0,1-404.483,525.813Zm-.085,4.811a1.235,1.235,0,0,0,1.258-1.145,1.234,1.234,0,0,0-1.143-1.258,1.232,1.232,0,0,0-1.258,1.143A1.236,1.236,0,0,0-404.569,530.624Z" transform="translate(3.003 3.007)" fill="#323232"/>
  </g>
</svg>
